<svg width="25" height="24" viewBox="0 0 25 24" fill="none" xmlns="http://www.w3.org/2000/svg">
<path d="M7.12519 10.7276L10.0454 11.4252V21.0395C10.0454 21.5639 9.63179 21.9889 9.10744 21.9889C8.5831 21.9889 8.15804 21.5639 8.15804 21.0395V13.4508H7.74813V21.0395C7.74813 21.5639 7.32307 21.9889 6.79872 21.9889C6.27438 21.9889 5.84913 21.5639 5.84913 21.0395V9.60374L6.47891 10.3341C6.64775 10.5297 6.87384 10.6674 7.12519 10.7276Z" fill="#F1F2F4"/>
<path d="M5.85592 5.86878H11.4976C11.0265 6.2526 10.706 6.81489 10.6413 7.45113H10.0455V8.89091L8.08562 8.42314L6.66457 7.45113L7.84451 8.81905L11.2297 9.62937C11.6546 9.73109 11.9166 10.158 11.8149 10.583C11.7133 11.0073 11.2869 11.2701 10.8613 11.1683L7.22792 10.2985C7.06656 10.2599 6.92142 10.1715 6.81303 10.0459L4.93821 7.87239C4.25957 7.08549 4.82065 5.86878 5.85592 5.86878Z" fill="#F1F2F4"/>
<path d="M7.89069 5.34916C6.98601 5.30872 6.28541 4.54252 6.32586 3.63782C6.36631 2.73312 7.13249 2.03251 8.03717 2.07296C8.94185 2.1134 9.64244 2.8796 9.60199 3.7843C9.56154 4.689 8.79537 5.38961 7.89069 5.34916Z" fill="#F1F2F4"/>
<path d="M14.8703 6.39124C13.9799 6.24624 13.3757 5.40691 13.5207 4.51656C13.6657 3.62621 14.505 3.02199 15.3954 3.167C16.2858 3.312 16.89 4.15133 16.745 5.04168C16.6 5.93203 15.7607 6.53625 14.8703 6.39124Z" fill="#444855"/>
<path d="M12.244 10.6862C12.4024 10.0243 11.9943 9.35931 11.3324 9.20083L11.1049 9.14637L11.1123 7.68068C11.1174 6.65746 11.9541 5.82499 12.9773 5.82499H13.3093C13.6728 6.45535 14.3533 6.88088 15.1318 6.88088C15.9103 6.88088 16.5908 6.45535 16.9543 5.82499H17.2083C17.393 5.82498 17.5719 5.88986 17.7136 6.00831L20.0056 7.92319C20.1115 8.01163 20.1923 8.12629 20.2399 8.25573C20.2876 8.38516 20.3004 8.52484 20.2772 8.66079L19.7955 11.4781C20.1365 11.7246 20.359 12.1253 20.359 12.5772V13.8148C20.359 14.0309 20.1839 14.206 19.9678 14.206C19.7517 14.206 19.5766 14.0309 19.5766 13.8148V12.5772C19.5766 12.5138 19.5658 12.4529 19.5467 12.3958C19.3712 12.6253 19.0821 12.745 18.7879 12.6947C18.6579 12.6727 18.5355 12.6182 18.4321 12.5363C18.4289 12.5817 18.4306 17.5941 18.43 21.5957C18.43 21.8118 18.2549 21.987 18.0388 21.987C17.8228 21.987 17.6476 21.8118 17.6476 21.5957V12.5773C17.6476 12.1327 17.8627 11.7374 18.1943 11.4901L18.647 8.84212L17.1926 7.62716V21.0304C17.1926 21.5528 16.769 21.9762 16.2467 21.9762C15.7244 21.9762 15.301 21.5528 15.301 21.0304V13.3777H14.8926V21.0545C14.8926 21.5768 14.4692 22.0002 13.9469 22.0002C13.4246 22.0002 12.9989 21.5768 12.9989 21.0545V7.40123C12.8404 7.40123 12.6747 7.53014 12.6739 7.68862V13.4786C12.6717 13.9125 12.3048 14.2628 11.8714 14.2628H11.8673C11.432 14.2606 11.0809 13.906 11.0831 13.4707L11.0924 11.631C11.6311 11.6107 12.1123 11.2361 12.244 10.6862Z" fill="#444855"/>
</svg>
