<svg width="24" height="24" viewBox="0 0 24 24" fill="none" xmlns="http://www.w3.org/2000/svg">
<path d="M8 4V3C8 2.44772 8.44772 2 9 2H15C15.5523 2 16 2.44772 16 3V4C16 4.55228 15.5523 5 15 5H9C8.44772 5 8 4.55228 8 4Z" fill="#1F747A"/>
<path fill-rule="evenodd" clip-rule="evenodd" d="M4 6C4 5.06626 4.63988 4.28197 5.50506 4.06171C5.77267 3.99359 5.99563 4.22554 6.04113 4.49791C6.2783 5.91779 7.51277 7 9 7H15C16.4872 7 17.7217 5.91779 17.9589 4.49791C18.0044 4.22554 18.2273 3.99359 18.4949 4.06171C19.3601 4.28197 20 5.06626 20 6V20C20 21.1046 19.1046 22 18 22H6C4.89543 22 4 21.1046 4 20V6ZM8 9C7.44772 9 7 9.44772 7 10C7 10.5523 7.44772 11 8 11H16C16.5523 11 17 10.5523 17 10C17 9.44772 16.5523 9 16 9H8ZM8 13C7.44772 13 7 13.4477 7 14C7 14.5523 7.44772 15 8 15H16C16.5523 15 17 14.5523 17 14C17 13.4477 16.5523 13 16 13H8ZM8 17C7.44772 17 7 17.4477 7 18C7 18.5523 7.44772 19 8 19H16C16.5523 19 17 18.5523 17 18C17 17.4477 16.5523 17 16 17H8Z" fill="#1F747A"/>
</svg>
