<svg width="24" height="24" viewBox="0 0 24 24" fill="none" xmlns="http://www.w3.org/2000/svg">
<path fill-rule="evenodd" clip-rule="evenodd" d="M17 7.00633C17 6.28256 16.2636 5.80101 15.6068 6.08309L13.2812 7.08181C11.9118 7.66991 10.4374 7.97318 8.94742 7.97318H6.5C5.12123 7.97318 4 9.09376 4 10.4804C4 11.8671 5.12123 12.9876 6.5 12.9876H8.94742C9.33502 12.9876 9.72156 13.0082 10.1055 13.0489C11.1974 13.1647 12.2681 13.4439 13.2812 13.879L15.6068 14.8777C16.2636 15.1598 17 14.6783 17 13.9545V7.00633ZM14.8176 4.24539C16.8002 3.39394 19 4.8525 19 7.00633V13.9545C19 16.1083 16.8002 17.5669 14.8176 16.7154L12.492 15.7167C12.0087 15.5091 11.5094 15.345 11 15.2254V18.998C11 20.1017 10.1065 21 9 21H8.84713C7.86784 21 7.03463 20.2908 6.87428 19.3268L6.15036 14.9742C3.82684 14.7955 2 12.8501 2 10.4804C2 7.99309 4.01277 5.97318 6.5 5.97318H8.94742C10.166 5.97318 11.3719 5.72516 12.492 5.24411L14.8176 4.24539ZM8.18006 14.9876L8.84718 18.9986C8.84744 19.0002 8.84746 18.9991 8.84718 18.9986C8.84712 18.9985 8.84737 18.9997 8.84771 19H8.99939C8.99927 19.0002 8.99965 18.9998 8.99939 19C8.99942 18.9997 9 18.9986 9 18.998V14.9878C8.98248 14.9877 8.96495 14.9876 8.94742 14.9876H8.18006ZM21 7.00004C21.5523 7.00004 22 7.44775 22 8.00004V13C22 13.5523 21.5523 14 21 14C20.4477 14 20 13.5523 20 13V8.00004C20 7.44775 20.4477 7.00004 21 7.00004ZM10 8.50004C10.5523 8.50004 11 8.94775 11 9.50004V11.5C11 12.0523 10.5523 12.5 10 12.5C9.44772 12.5 9 12.0523 9 11.5V9.50004C9 8.94775 9.44772 8.50004 10 8.50004Z" fill="#46B969"/>
</svg>
