<svg width="16" height="16" viewBox="0 0 16 16" fill="none" xmlns="http://www.w3.org/2000/svg">
<g clip-path="url(#clip0_2299_9050)">
<path fill-rule="evenodd" clip-rule="evenodd" d="M7.99992 0.583252C3.90381 0.583252 0.583252 3.90381 0.583252 7.99992C0.583252 12.096 3.90381 15.4166 7.99992 15.4166C12.096 15.4166 15.4166 12.096 15.4166 7.99992C15.4166 3.90381 12.096 0.583252 7.99992 0.583252ZM2.08325 7.99992C2.08325 4.73223 4.73223 2.08325 7.99992 2.08325C11.2676 2.08325 13.9166 4.73223 13.9166 7.99992C13.9166 11.2676 11.2676 13.9166 7.99992 13.9166C4.73223 13.9166 2.08325 11.2676 2.08325 7.99992ZM8.74992 5.33325C8.74992 4.91904 8.41413 4.58325 7.99992 4.58325C7.5857 4.58325 7.24992 4.91904 7.24992 5.33325V8.66658C7.24992 9.0808 7.5857 9.41658 7.99992 9.41658C8.41413 9.41658 8.74992 9.0808 8.74992 8.66658V5.33325ZM8.08325 11.5C8.49747 11.5 8.83325 11.1642 8.83325 10.75C8.83325 10.3358 8.49747 10 8.08325 10C7.66904 10 7.33325 10.3358 7.33325 10.75C7.33325 11.1642 7.66904 11.5 8.08325 11.5Z" fill="#F43F5D"/>
</g>
<defs>
<clipPath id="clip0_2299_9050">
<rect width="16" height="16" fill="white"/>
</clipPath>
</defs>
</svg>
