<svg width="24" height="25" viewBox="0 0 24 25" fill="none" xmlns="http://www.w3.org/2000/svg">
<path d="M9.00014 2.5C9.00014 1.94772 9.44785 1.5 10.0001 1.5H14.0001C14.5524 1.5 15.0001 1.94772 15.0001 2.5C15.0001 3.05228 14.5524 3.5 14.0001 3.5H10.0001C9.44785 3.5 9.00014 3.05228 9.00014 2.5Z" fill="#47C8D1"/>
<path d="M18.5617 15.6115L19.8843 18.0528C20.2446 18.7177 19.7207 19.5 18.9152 19.5H5.08507C4.27959 19.5 3.75571 18.7177 4.11593 18.0528L5.43856 15.6115C6.19083 14.2229 6.58247 12.6918 6.58247 11.1393V10.5C6.58247 8.8033 7.49818 7.30399 8.89837 6.40005C8.96492 6.35708 9.03257 6.31546 9.10126 6.27523C9.93952 5.78429 10.9339 5.5 12.0001 5.5C13.0664 5.5 14.0608 5.78429 14.899 6.27523C14.9677 6.31546 15.0354 6.35708 15.1019 6.40005C16.5021 7.30399 17.4178 8.8033 17.4178 10.5V11.1393C17.4178 12.6918 17.8094 14.2229 18.5617 15.6115Z" fill="#47C8D1"/>
<path d="M9.595 21.5C9.38796 21.5 9.24414 21.7052 9.34011 21.8886C9.84114 22.8464 10.8443 23.5 12.0001 23.5C13.1559 23.5 14.159 22.8464 14.66 21.8886C14.756 21.7052 14.6122 21.5 14.4051 21.5H9.595Z" fill="#47C8D1"/>
<path d="M5.23219 7.05071C5.53634 6.58972 5.4092 5.96946 4.94821 5.66531C4.48722 5.36116 3.86695 5.4883 3.5628 5.94929C2.77502 7.1433 2.23338 8.5153 2.01126 9.99193C1.92911 10.5381 2.30525 11.0474 2.85139 11.1296C3.39753 11.2117 3.90686 10.8356 3.98901 10.2894C4.16688 9.10701 4.60039 8.00831 5.23219 7.05071Z" fill="#47C8D1"/>
<path d="M20.4375 5.94929C20.1333 5.4883 19.5131 5.36116 19.0521 5.66531C18.5911 5.96946 18.4639 6.58972 18.7681 7.05071C19.3999 8.00831 19.8334 9.10701 20.0113 10.2894C20.0934 10.8356 20.6027 11.2117 21.1489 11.1296C21.695 11.0474 22.0712 10.5381 21.989 9.99194C21.7669 8.5153 21.2253 7.1433 20.4375 5.94929Z" fill="#47C8D1"/>
</svg>
