<svg width="24" height="25" viewBox="0 0 24 25" fill="none" xmlns="http://www.w3.org/2000/svg">
<path d="M11 12.5C11 11.9477 11.4477 11.5 12 11.5C12.5523 11.5 13 11.9477 13 12.5C13 13.0523 12.5523 13.5 12 13.5C11.4477 13.5 11 13.0523 11 12.5Z" fill="#1F747A"/>
<path fill-rule="evenodd" clip-rule="evenodd" d="M12 7.5C9.23858 7.5 7 9.73858 7 12.5C7 15.2614 9.23858 17.5 12 17.5C14.7614 17.5 17 15.2614 17 12.5C17 9.73858 14.7614 7.5 12 7.5ZM12 9.5C10.3431 9.5 9 10.8431 9 12.5C9 14.1569 10.3431 15.5 12 15.5C13.6569 15.5 15 14.1569 15 12.5C15 10.8431 13.6569 9.5 12 9.5Z" fill="#1F747A"/>
<path fill-rule="evenodd" clip-rule="evenodd" d="M2 12.5C2 18.0228 6.47715 22.5 12 22.5C17.5228 22.5 22 18.0228 22 12.5C22 6.97715 17.5228 2.5 12 2.5C6.47715 2.5 2 6.97715 2 12.5ZM5 12.5C5 8.63401 8.13401 5.5 12 5.5C15.866 5.5 19 8.63401 19 12.5C19 16.366 15.866 19.5 12 19.5C8.13401 19.5 5 16.366 5 12.5Z" fill="#1F747A"/>
</svg>
