<svg width="24" height="25" viewBox="0 0 24 25" fill="none" xmlns="http://www.w3.org/2000/svg">
<path fill-rule="evenodd" clip-rule="evenodd" d="M9 2.50024C9 1.94796 8.55228 1.50024 8 1.50024C7.44772 1.50024 7 1.94796 7 2.50024H6C3.79086 2.50024 2 4.29111 2 6.50024V9.50024V19.5002C2 21.7094 3.79086 23.5002 6 23.5002H18C20.2091 23.5002 22 21.7094 22 19.5002V9.50024V6.50024C22 4.29111 20.2091 2.50024 18 2.50024H17C17 1.94796 16.5523 1.50024 16 1.50024C15.4477 1.50024 15 1.94796 15 2.50024H9ZM6 4.50024H7C7 5.05253 7.44772 5.50024 8 5.50024C8.55228 5.50024 9 5.05253 9 4.50024H15C15 5.05253 15.4477 5.50024 16 5.50024C16.5523 5.50024 17 5.05253 17 4.50024H18C19.1046 4.50024 20 5.39567 20 6.50024V8.50024H4V6.50024C4 5.39567 4.89543 4.50024 6 4.50024ZM4 10.5002H20V19.5002C20 20.6048 19.1046 21.5002 18 21.5002H6C4.89543 21.5002 4 20.6048 4 19.5002V10.5002ZM12.4617 11.8104C12.2909 11.3998 11.7092 11.3998 11.5384 11.8104L10.749 13.7084C10.6774 13.8804 10.5162 13.9984 10.3306 14.0145L8.46228 14.177C8.03355 14.2143 7.84906 14.7397 8.16041 15.0368L9.57961 16.3911C9.7083 16.5139 9.76206 16.6958 9.72079 16.8688L9.24015 18.8837C9.13696 19.3164 9.60758 19.6583 9.98713 19.4265L11.7394 18.3562C11.8995 18.2584 12.1007 18.2584 12.2607 18.3562L14.013 19.4265C14.3926 19.6583 14.8632 19.3164 14.76 18.8837L14.2795 16.8695C14.2382 16.6961 14.2922 16.5138 14.4214 16.391L15.8454 15.0375C16.1577 14.7407 15.9734 14.2142 15.5441 14.177L13.6696 14.0145C13.484 13.9984 13.3227 13.8804 13.2511 13.7084L12.4617 11.8104Z" fill="#17181C"/>
</svg>
