<svg width="24" height="25" viewBox="0 0 24 25" fill="none" xmlns="http://www.w3.org/2000/svg">
<path d="M4 7.5H5C6.10457 7.5 7 8.39543 7 9.5V15.5C7 16.6046 6.10457 17.5 5 17.5H4C2.89543 17.5 2 16.6046 2 15.5V9.5C2 8.39543 2.89543 7.5 4 7.5Z" fill="#47C8D1"/>
<path d="M19 7.5H20C21.1046 7.5 22 8.39543 22 9.5V15.5C22 16.6046 21.1046 17.5 20 17.5H19C17.8954 17.5 17 16.6046 17 15.5V9.5C17 8.39543 17.8954 7.5 19 7.5Z" fill="#47C8D1"/>
<path d="M8.5 11H15.5C15.7761 11 16 11.2239 16 11.5V13.5C16 13.7761 15.7761 14 15.5 14H8.5C8.22386 14 8 13.7761 8 13.5V11.5C8 11.2239 8.22386 11 8.5 11Z" fill="#47C8D1"/>
</svg>
