<svg width="41" height="40" viewBox="0 0 41 40" fill="none" xmlns="http://www.w3.org/2000/svg">
<rect x="0.5" y="0.000244141" width="40" height="40" rx="12" fill="white" fill-opacity="0.3"/>
<path fill-rule="evenodd" clip-rule="evenodd" d="M32.5 19.5002C32.5 26.864 27.1274 32.8335 20.5 32.8335C13.8726 32.8335 8.5 26.864 8.5 19.5002C8.5 18.587 8.58263 17.6952 8.74004 16.8335C8.90752 15.9168 9.15963 15.0343 9.48693 14.1964C9.57456 13.9721 9.89107 14.0026 9.9451 14.2373C10.6916 17.4801 11.9291 21.5002 13.1667 21.5002C14.1481 21.5002 14.4874 19.7344 14.8935 17.6206C15.315 15.4268 15.8086 12.8583 17.1667 11.5002C19.7089 11.5002 21.0393 9.07662 20.5803 6.53993C20.5483 6.36276 20.6985 6.20028 20.8751 6.23557C24.6857 6.99741 27.5096 9.53863 28.5 13.5002C28.7745 14.5982 28.4839 15.8093 28.2331 16.8542C27.8749 18.3468 27.598 19.5002 29.1667 19.5002C30.2478 19.5002 30.8906 18.1854 31.5634 16.8091C31.6258 16.6815 31.6884 16.5534 31.7517 16.4257C31.853 16.2212 32.1442 16.2563 32.1908 16.4797C32.3931 17.4502 32.5 18.4613 32.5 19.5002ZM29.1408 23.095C29.2852 22.3729 28.8169 21.6705 28.0948 21.5261C27.3727 21.3817 26.6703 21.85 26.5259 22.572C25.9858 25.2723 23.2079 27.5002 20.5 27.5002C19.7636 27.5002 19.1667 28.0972 19.1667 28.8335C19.1667 29.5699 19.7636 30.1669 20.5 30.1669C24.4588 30.1669 28.3475 27.0614 29.1408 23.095Z" fill="#F43F5D"/>
</svg>
