<svg width="36" height="36" viewBox="0 0 36 36" fill="none" xmlns="http://www.w3.org/2000/svg">
<path fill-rule="evenodd" clip-rule="evenodd" d="M10.5 18C10.5 13.8579 13.8579 10.5 18 10.5C18.9679 10.5 19.8929 10.6833 20.7423 11.0172L18.2525 13.507C18.1689 13.5023 18.0847 13.5 18 13.5C15.5147 13.5 13.5 15.5147 13.5 18C13.5 20.4853 15.5147 22.5 18 22.5C20.4853 22.5 22.5 20.4853 22.5 18C22.5 17.9166 22.4977 17.8337 22.4932 17.7514L24.9886 15.2725C25.3188 16.1178 25.5 17.0377 25.5 18C25.5 22.1421 22.1421 25.5 18 25.5C13.8579 25.5 10.5 22.1421 10.5 18Z" fill="#0EA4E9"/>
<path fill-rule="evenodd" clip-rule="evenodd" d="M18 33C9.71573 33 3 26.2843 3 18C3 9.71573 9.71573 3 18 3C20.7346 3 23.2982 3.73175 25.5059 5.01012V6.25195L23.001 8.76515C21.5141 7.95827 19.8106 7.5 18 7.5C12.201 7.5 7.5 12.201 7.5 18C7.5 23.799 12.201 28.5 18 28.5C23.799 28.5 28.5 23.799 28.5 18C28.5 16.1944 28.0443 14.4953 27.2415 13.0113L29.7422 10.5107H30.9994C32.2719 12.7146 33 15.2723 33 18C33 26.2843 26.2843 33 18 33Z" fill="#0EA4E9"/>
<path d="M30 4.5C30 3.67157 29.3284 3 28.5 3C27.6716 3 27 3.67157 27 4.5V6.87868L18.7037 15.175C18.4938 15.0633 18.2543 15 18 15C17.1716 15 16.5 15.6716 16.5 16.5V18C16.5 18.8284 17.1716 19.5 18 19.5H19.5C20.3284 19.5 21 18.8284 21 18C21 17.7457 20.9367 17.5062 20.825 17.2963L29.1213 9H31.5C32.3284 9 33 8.32843 33 7.5C33 6.67157 32.3284 6 31.5 6H30V4.5Z" fill="#0EA4E9"/>
</svg>
