<svg width="41" height="42" viewBox="0 0 41 42" fill="none" xmlns="http://www.w3.org/2000/svg">
<path fill-rule="evenodd" clip-rule="evenodd" d="M24.9698 2.12919L19.9331 10.2331C19.5443 10.8585 19.4741 11.4538 19.7278 11.9222C19.985 12.3943 20.4965 12.6068 21.1842 12.5347L30.0994 11.5605C36.4369 10.8688 28.5514 -3.63047 24.9699 2.1329L24.9698 2.12919Z" fill="#EAB208"/>
<path fill-rule="evenodd" clip-rule="evenodd" d="M15.0618 2.25798L20.308 10.228C20.7128 10.843 20.7986 11.4362 20.5571 11.9111C20.3157 12.386 19.8065 12.6155 19.1172 12.5614L10.1797 11.8197C3.82633 11.2933 11.3314 -3.40645 15.0619 2.26169L15.0618 2.25798Z" fill="#EAB208"/>
<path fill-rule="evenodd" clip-rule="evenodd" d="M19.7577 7.81585L20.419 7.80724C21.8027 7.78922 22.9516 9.01492 22.9714 10.5302C22.9911 12.0455 21.8745 13.3007 20.4908 13.3187L19.8295 13.3273C18.4458 13.3454 17.2968 12.1197 17.2771 10.6044C17.2574 9.08909 18.374 7.83388 19.7577 7.81585Z" fill="#C59607"/>
<path d="M20.8485 16.743L37.5515 16.5254C38.2841 16.5159 38.886 17.1581 38.8965 17.9603L39.1728 39.1743C39.1833 39.9765 38.5982 40.6342 37.8657 40.6437L21.1627 40.8613C20.4301 40.8709 19.8282 40.2286 19.8177 39.4264L19.5414 18.2124C19.5309 17.4102 20.116 16.7525 20.8485 16.743Z" fill="#0C87C0"/>
<path d="M19.4423 10.6434L38.7974 10.3913C39.5299 10.3817 40.1319 11.0239 40.1424 11.8261L40.2296 18.5261C40.2401 19.3283 39.655 19.986 38.9225 19.9955L19.5674 20.2476C18.8348 20.2572 18.2328 19.615 18.2224 18.8127L18.1351 12.1128C18.1247 11.3106 18.7097 10.6529 19.4423 10.6434Z" fill="#CC9600"/>
<path d="M2.86122 16.9774L19.5642 16.7598C20.2968 16.7502 20.8987 17.3925 20.9092 18.1947L21.1855 39.4087C21.1959 40.2109 20.6109 40.8686 19.8784 40.8781L3.17538 41.0957C2.44282 41.1052 1.84085 40.463 1.8304 39.6608L1.55407 18.4468C1.54362 17.6446 2.12866 16.9869 2.86122 16.9774Z" fill="#0EA4E9"/>
<path d="M1.45302 10.8777L20.8081 10.6256C21.5407 10.6161 22.1427 11.2583 22.1531 12.0605L22.2404 18.7605C22.2508 19.5627 21.6658 20.2203 20.9332 20.2299L1.57812 20.482C0.845562 20.4915 0.243589 19.8493 0.233139 19.0471L0.145868 12.3472C0.135419 11.545 0.720461 10.8873 1.45302 10.8777Z" fill="#F8C93A"/>
<path fill-rule="evenodd" clip-rule="evenodd" d="M9.08853 32.757L7.10455 34.0867C6.99025 34.1662 6.85459 34.1679 6.73492 34.0952C6.61525 34.0225 6.54578 33.8971 6.54384 33.7485L6.24512 10.8149L11.3561 10.7484L11.6548 33.682C11.6567 33.8305 11.5905 33.9577 11.4728 34.0335C11.3551 34.1093 11.2194 34.1074 11.1031 34.0346L9.08514 32.7571L9.08853 32.757Z" fill="#FDF1CE"/>
<path fill-rule="evenodd" clip-rule="evenodd" d="M30.9137 32.4733L28.9297 33.803C28.8154 33.8825 28.6798 33.8843 28.5601 33.8115C28.4404 33.7388 28.371 33.6134 28.369 33.4648L28.0703 10.5312L33.1813 10.4647L33.48 33.3983C33.4819 33.5468 33.4157 33.674 33.298 33.7498C33.1803 33.8256 33.0446 33.8237 32.9283 33.7509L30.9103 32.4734L30.9137 32.4733Z" fill="#FDF1CE"/>
</svg>
