<svg width="31" height="31" viewBox="0 0 31 31" fill="none" xmlns="http://www.w3.org/2000/svg">
<path fill-rule="evenodd" clip-rule="evenodd" d="M18.7267 1.13778L14.9491 7.21567C14.6575 7.68471 14.6048 8.13114 14.7951 8.48247C14.988 8.83655 15.3717 8.99592 15.8874 8.94184L22.5739 8.21121C27.3271 7.69241 21.4129 -3.18193 18.7267 1.14056L18.7267 1.13778Z" fill="#EAB208"/>
<path fill-rule="evenodd" clip-rule="evenodd" d="M11.2964 1.23424L15.2311 7.21168C15.5347 7.67297 15.599 8.11787 15.418 8.47404C15.2369 8.83021 14.855 9.00233 14.338 8.96171L7.6348 8.40548C2.86971 8.01066 8.49858 -3.01403 11.2965 1.23703L11.2964 1.23424Z" fill="#EAB208"/>
<path fill-rule="evenodd" clip-rule="evenodd" d="M14.818 5.40315L15.314 5.39669C16.3518 5.38317 17.2135 6.30244 17.2283 7.4389C17.2431 8.57535 16.4057 9.51675 15.3679 9.53027L14.8719 9.53673C13.8341 9.55024 12.9724 8.63098 12.9576 7.49452C12.9428 6.35807 13.7802 5.41667 14.818 5.40315Z" fill="#C59607"/>
<path d="M15.6362 12.0974L28.1635 11.9342C28.713 11.9271 29.1644 12.4087 29.1723 13.0104L29.3795 28.9207C29.3874 29.5224 28.9486 30.0156 28.3992 30.0228L15.8718 30.186C15.3224 30.1931 14.8709 29.7115 14.863 29.1098L14.6558 13.1995C14.648 12.5978 15.0867 12.1046 15.6362 12.0974Z" fill="#0C87C0"/>
<path d="M14.5815 7.52318L29.098 7.33409C29.6474 7.32694 30.0989 7.80859 30.1067 8.41024L30.1722 13.4352C30.18 14.0368 29.7412 14.5301 29.1918 14.5372L14.6753 14.7263C14.1259 14.7335 13.6744 14.2518 13.6666 13.6501L13.6011 8.62524C13.5933 8.02358 14.0321 7.53033 14.5815 7.52318Z" fill="#CC9600"/>
<path d="M2.14495 12.2732L14.6723 12.11C15.2218 12.1028 15.6732 12.5845 15.6811 13.1861L15.8883 29.0965C15.8962 29.6982 15.4574 30.1914 14.9079 30.1986L2.38057 30.3617C1.83114 30.3689 1.37966 29.8872 1.37182 29.2856L1.16458 13.3752C1.15674 12.7736 1.59553 12.2803 2.14495 12.2732Z" fill="#0EA4E9"/>
<path d="M1.08929 7.69896L15.6058 7.50987C16.1552 7.50272 16.6067 7.98437 16.6145 8.58602L16.68 13.6109C16.6878 14.2126 16.249 14.7058 15.6996 14.713L1.18311 14.9021C0.633688 14.9092 0.182202 14.4276 0.174365 13.8259L0.108913 8.80102C0.101076 8.19936 0.539863 7.70612 1.08929 7.69896Z" fill="#F8C93A"/>
<path fill-rule="evenodd" clip-rule="evenodd" d="M6.81617 24.1078L5.32817 25.105C5.24245 25.1646 5.1407 25.1659 5.05095 25.1114C4.96119 25.0568 4.90909 24.9628 4.90763 24.8514L4.68359 7.65137L8.51685 7.60144L8.74089 24.8014C8.74234 24.9129 8.6927 25.0082 8.6044 25.0651C8.5161 25.122 8.41431 25.1205 8.32711 25.0659L6.81363 24.1078L6.81617 24.1078Z" fill="#FDF1CE"/>
<path fill-rule="evenodd" clip-rule="evenodd" d="M23.1853 23.8958L21.6973 24.8931C21.6116 24.9527 21.5098 24.954 21.4201 24.8995C21.3303 24.8449 21.2782 24.7509 21.2768 24.6395L21.0527 7.43945L24.886 7.38952L25.11 24.5895C25.1115 24.7009 25.0618 24.7963 24.9735 24.8532C24.8852 24.9101 24.7835 24.9086 24.6962 24.854L23.1828 23.8959L23.1853 23.8958Z" fill="#FDF1CE"/>
</svg>
