<svg width="47" height="62" viewBox="0 0 47 62" fill="none" xmlns="http://www.w3.org/2000/svg">
<rect x="0.5" y="22" width="40" height="40" rx="12" fill="#EAF9FA"/>
<path fill-rule="evenodd" clip-rule="evenodd" d="M24.7267 28.1378L20.9491 34.2157C20.6575 34.6847 20.6048 35.1311 20.7951 35.4825C20.988 35.8366 21.3717 35.9959 21.8874 35.9418L28.5739 35.2112C33.3271 34.6924 27.4129 23.8181 24.7267 28.1406L24.7267 28.1378Z" fill="#EAB208"/>
<path fill-rule="evenodd" clip-rule="evenodd" d="M17.2964 28.2342L21.2311 34.2117C21.5347 34.673 21.599 35.1179 21.418 35.474C21.2369 35.8302 20.855 36.0023 20.338 35.9617L13.6348 35.4055C8.86971 35.0107 14.4986 23.986 17.2965 28.237L17.2964 28.2342Z" fill="#EAB208"/>
<path fill-rule="evenodd" clip-rule="evenodd" d="M20.818 32.4029L21.314 32.3964C22.3518 32.3829 23.2135 33.3022 23.2283 34.4387C23.2431 35.5751 22.4057 36.5165 21.3679 36.53L20.8719 36.5365C19.8341 36.55 18.9724 35.6307 18.9576 34.4943C18.9428 33.3578 19.7802 32.4164 20.818 32.4029Z" fill="#C59607"/>
<path d="M21.6362 39.0976L34.1635 38.9345C34.713 38.9273 35.1644 39.409 35.1723 40.0106L35.3795 55.921C35.3874 56.5226 34.9486 57.0159 34.3992 57.023L21.8718 57.1862C21.3224 57.1934 20.8709 56.7117 20.863 56.1101L20.6558 40.1997C20.648 39.598 21.0867 39.1048 21.6362 39.0976Z" fill="#0C87C0"/>
<path d="M20.582 34.5232L35.0985 34.3341C35.6479 34.3269 36.0994 34.8086 36.1072 35.4102L36.1727 40.4352C36.1805 41.0368 35.7417 41.5301 35.1923 41.5372L20.6758 41.7263C20.1264 41.7335 19.6749 41.2518 19.667 40.6501L19.6016 35.6252C19.5938 35.0236 20.0325 34.5303 20.582 34.5232Z" fill="#CC9600"/>
<path d="M8.14495 39.2734L20.6723 39.1102C21.2218 39.1031 21.6732 39.5847 21.6811 40.1864L21.8883 56.0967C21.8962 56.6984 21.4574 57.1917 20.9079 57.1988L8.38057 57.362C7.83114 57.3691 7.37966 56.8875 7.37182 56.2858L7.16458 40.3755C7.15674 39.7738 7.59553 39.2806 8.14495 39.2734Z" fill="#0EA4E9"/>
<path d="M7.08978 34.699L21.6063 34.5099C22.1557 34.5027 22.6072 34.9844 22.615 35.586L22.6805 40.6109C22.6883 41.2126 22.2495 41.7058 21.7001 41.713L7.1836 41.9021C6.63418 41.9092 6.18269 41.4276 6.17485 40.8259L6.1094 35.801C6.10156 35.1994 6.54035 34.7061 7.08978 34.699Z" fill="#F8C93A"/>
<path fill-rule="evenodd" clip-rule="evenodd" d="M12.8167 51.108L11.3287 52.1052C11.2429 52.1648 11.1412 52.1662 11.0514 52.1116C10.9617 52.0571 10.9096 51.963 10.9081 51.8516L10.6841 34.6516L14.5173 34.6017L14.7414 51.8017C14.7428 51.9131 14.6932 52.0085 14.6049 52.0653C14.5166 52.1222 14.4148 52.1207 14.3276 52.0662L12.8141 51.108L12.8167 51.108Z" fill="#FDF1CE"/>
<path fill-rule="evenodd" clip-rule="evenodd" d="M29.1858 50.8958L27.6978 51.8931C27.6121 51.9527 27.5103 51.954 27.4206 51.8995C27.3308 51.8449 27.2787 51.7509 27.2773 51.6395L27.0532 34.4395L30.8865 34.3895L31.1105 51.5895C31.112 51.7009 31.0623 51.7963 30.974 51.8532C30.8857 51.9101 30.7839 51.9086 30.6967 51.854L29.1833 50.8959L29.1858 50.8958Z" fill="#FDF1CE"/>
<g clip-path="url(#clip0_166_144)">
<path d="M42.8164 14.4141C42.8164 16.833 41.4523 19.0301 39.486 20.5124C39.608 20.9117 39.6719 21.3394 39.6719 21.7871C39.6719 23.4766 38.7441 25.1074 37.2402 26.084C37.0547 26.2012 36.9277 26.2598 36.7129 26.2598C36.2539 26.2598 35.9609 25.9473 35.9609 25.5859C35.9609 25.2344 36.166 25.0293 36.4492 24.8242C37.543 24.1309 38.207 22.9883 38.207 21.8164C38.207 21.6566 38.1956 21.5009 38.1699 21.3516C36.8529 22.0638 35.3718 22.4707 33.9004 22.4707C33.3697 22.4707 32.8947 22.3774 32.4986 22.2032C32.112 22.2321 31.7318 22.2461 31.3516 22.2461C26.5469 22.2461 22.6992 19.7266 22.6992 15.2441C22.6992 14.581 22.7919 13.9444 22.9681 13.3396C23.6466 13.444 24.083 13.5549 24.3805 13.7765C24.2445 14.2478 24.1738 14.7417 24.1738 15.2539C24.1738 18.8872 27.3715 20.723 31.2544 20.7758C31.2218 20.629 31.2051 20.4742 31.2051 20.3125C31.2051 18.584 32.8945 17.4121 35.1309 17.4121C36.6631 17.4121 37.9942 18.0897 38.8083 19.1765C40.3161 17.9643 41.3516 16.253 41.3516 14.4043C41.3516 10.5469 37.8262 8.00781 33.7344 8.00781C32.2453 8.00781 30.7355 8.31062 29.3705 8.86319C29.1295 8.56086 29 8.1272 28.8828 7.47241C30.4034 6.86345 32.0726 6.5332 33.7246 6.5332C38.6758 6.5332 42.8164 9.76562 42.8164 14.4141ZM32.6895 20.2637C32.6895 20.7324 33.1973 21.0059 33.9004 21.0059C35.1655 21.0059 36.4557 20.6343 37.5957 19.9932C37.0648 19.3119 36.224 18.8965 35.248 18.8965C33.832 18.8965 32.6895 19.4434 32.6895 20.2637Z" fill="#EAF9FA"/>
<path d="M26.9766 16.6699C27.2012 16.6699 27.3574 16.5137 27.3965 16.2988C28.0508 12.7832 28.334 12.3438 31.8008 11.875C32.0352 11.8457 32.2012 11.6797 32.2012 11.4551C32.2012 11.2305 32.0352 11.0645 31.8008 11.0352C28.3438 10.5664 27.9043 10.1367 27.3965 6.62109C27.3672 6.39648 27.2012 6.23047 26.9766 6.23047C26.7617 6.23047 26.5957 6.38672 26.5566 6.61133C25.9219 10.127 25.6191 10.5664 22.1523 11.0352C21.918 11.0645 21.752 11.2305 21.752 11.4551C21.752 11.6797 21.918 11.8457 22.1523 11.875C25.6094 12.3438 26.0488 12.7637 26.5566 16.2891C26.5859 16.5137 26.7422 16.6699 26.9766 16.6699ZM22.5625 9.48242C22.7285 9.48242 22.8652 9.36523 22.8945 9.19922C23.2168 7.53906 23.0898 7.49023 24.8867 7.20703C25.0723 7.17773 25.1797 7.04102 25.1797 6.875C25.1797 6.70898 25.0723 6.57227 24.8867 6.54297C23.0898 6.24023 23.2168 6.18164 22.8945 4.57031C22.8652 4.39453 22.7383 4.26758 22.5625 4.26758C22.3867 4.26758 22.2695 4.38477 22.2305 4.57031C21.8984 6.18164 22.0254 6.24023 20.2383 6.54297C20.0625 6.57227 19.9453 6.70898 19.9453 6.875C19.9453 7.06055 20.0625 7.17773 20.2578 7.20703C22.0254 7.49023 21.8984 7.53906 22.2305 9.16992C22.2695 9.35547 22.377 9.48242 22.5625 9.48242ZM25.7266 5.01953C25.834 5.01953 25.9219 4.93164 25.9414 4.82422C26.1465 3.71094 26.0879 3.68164 27.3184 3.45703C27.4356 3.42773 27.5039 3.33984 27.5039 3.23242C27.5039 3.125 27.4356 3.02734 27.3184 3.00781C26.0781 2.77344 26.127 2.73438 25.9414 1.65039C25.9219 1.5332 25.8438 1.44531 25.7266 1.44531C25.6094 1.44531 25.5313 1.5332 25.502 1.65039C25.2676 2.73438 25.3555 2.77344 24.125 3.00781C24.0176 3.02734 23.9395 3.125 23.9395 3.23242C23.9395 3.34961 24.0176 3.42773 24.1348 3.45703C25.3555 3.65234 25.2676 3.71094 25.502 4.80469C25.5313 4.93164 25.6094 5.01953 25.7266 5.01953Z" fill="#47C8D1" fill-opacity="0.85"/>
<path d="M28.94 17.34V16.068H27.734V15.438H28.94V14.16H29.594V15.438H30.806V16.068H29.594V17.34H28.94ZM31.5311 18V17.28H32.4911V14.598H31.6811V14.046C31.9051 14.002 32.0971 13.95 32.2571 13.89C32.4211 13.83 32.5731 13.758 32.7131 13.674H33.3671V17.28H34.2011V18H31.5311ZM35.0521 19.29V14.64H35.7721L35.8381 14.988H35.8561C35.9961 14.868 36.1501 14.766 36.3181 14.682C36.4901 14.598 36.6661 14.556 36.8461 14.556C37.1221 14.556 37.3581 14.628 37.5541 14.772C37.7501 14.912 37.9001 15.11 38.0041 15.366C38.1121 15.618 38.1661 15.918 38.1661 16.266C38.1661 16.65 38.0981 16.978 37.9621 17.25C37.8261 17.522 37.6481 17.73 37.4281 17.874C37.2121 18.014 36.9821 18.084 36.7381 18.084C36.5941 18.084 36.4501 18.052 36.3061 17.988C36.1661 17.924 36.0321 17.834 35.9041 17.718L35.9341 18.264V19.29H35.0521ZM36.5461 17.358C36.6781 17.358 36.7981 17.32 36.9061 17.244C37.0141 17.164 37.1001 17.044 37.1641 16.884C37.2281 16.724 37.2601 16.522 37.2601 16.278C37.2601 16.066 37.2361 15.886 37.1881 15.738C37.1401 15.586 37.0681 15.472 36.9721 15.396C36.8761 15.32 36.7501 15.282 36.5941 15.282C36.4821 15.282 36.3721 15.31 36.2641 15.366C36.1601 15.422 36.0501 15.508 35.9341 15.624V17.106C36.0421 17.202 36.1481 17.268 36.2521 17.304C36.3561 17.34 36.4541 17.358 36.5461 17.358ZM39.9501 18.084C39.6861 18.084 39.4721 18.032 39.3081 17.928C39.1441 17.82 39.0261 17.672 38.9541 17.484C38.8821 17.296 38.8461 17.078 38.8461 16.83V15.336H38.3721V14.682L38.8941 14.64L38.9961 13.734H39.7221V14.64H40.5561V15.336H39.7221V16.824C39.7221 17.016 39.7621 17.158 39.8421 17.25C39.9221 17.342 40.0361 17.388 40.1841 17.388C40.2401 17.388 40.2981 17.38 40.3581 17.364C40.4181 17.348 40.4701 17.332 40.5141 17.316L40.6641 17.958C40.5721 17.986 40.4661 18.014 40.3461 18.042C40.2301 18.07 40.0981 18.084 39.9501 18.084Z" fill="#47C8D1"/>
</g>
<defs>
<clipPath id="clip0_166_144">
<rect width="28.877" height="30.498" fill="white" transform="translate(17.5)"/>
</clipPath>
</defs>
</svg>
