<svg width="24" height="24" viewBox="0 0 24 24" fill="none" xmlns="http://www.w3.org/2000/svg">
<path fill-rule="evenodd" clip-rule="evenodd" d="M7 2C6.03693 2 5.04117 2.3199 4.27314 3.00259C3.4867 3.70164 3 4.72864 3 6C3 6.96307 3.3199 7.95883 4.00259 8.72686C4.70164 9.5133 5.72864 10 7 10H17C18.2714 10 19.2984 9.5133 19.9974 8.72686C20.6801 7.95883 21 6.96307 21 6C21 4.72864 20.5133 3.70164 19.7269 3.00259C18.9588 2.3199 17.9631 2 17 2C15.4817 2 13.965 2.60857 12.833 3.81606C12.5202 4.1497 12.2407 4.52458 12 4.93886C11.7593 4.52458 11.4798 4.1497 11.167 3.81606C10.035 2.60857 8.51831 2 7 2ZM9.70796 5.18394C10.2996 5.81505 10.7729 6.73865 10.9374 8H7C6.27136 8 5.79836 7.7367 5.49741 7.39814C5.1801 7.04117 5 6.53693 5 6C5 5.27136 5.2633 4.79836 5.60186 4.49741C5.95883 4.1801 6.46307 4 7 4C7.98169 4 8.96498 4.39143 9.70796 5.18394ZM14.292 5.18394C13.7004 5.81505 13.2271 6.73865 13.0626 8H17C17.7286 8 18.2016 7.7367 18.5026 7.39814C18.8199 7.04117 19 6.53693 19 6C19 5.27136 18.7367 4.79836 18.3981 4.49741C18.0412 4.1801 17.5369 4 17 4C16.0183 4 15.035 4.39143 14.292 5.18394Z" fill="#217C82"/>
<path d="M10.5 12C10.7761 12 11 12.2239 11 12.5V15C11 15.2761 10.7761 15.5 10.5 15.5H4C3.44772 15.5 3 15.0523 3 14.5V13C3 12.4477 3.44772 12 4 12H10.5Z" fill="#217C82"/>
<path d="M13.5 15.5C13.2239 15.5 13 15.2761 13 15V12.5C13 12.2239 13.2239 12 13.5 12H20C20.5523 12 21 12.4477 21 13V14.5C21 15.0523 20.5523 15.5 20 15.5H13.5Z" fill="#217C82"/>
<path d="M13.5 22C13.2239 22 13 21.7761 13 21.5V18C13 17.7239 13.2239 17.5 13.5 17.5H18.5C18.7761 17.5 19 17.7239 19 18V19C19 20.6569 17.6569 22 16 22H13.5Z" fill="#217C82"/>
<path d="M11 18C11 17.7239 10.7761 17.5 10.5 17.5H5.5C5.22386 17.5 5 17.7239 5 18V19C5 20.6569 6.34315 22 8 22H10.5C10.7761 22 11 21.7761 11 21.5V18Z" fill="#217C82"/>
</svg>
