<svg width="19" height="19" viewBox="0 0 19 19" fill="none" xmlns="http://www.w3.org/2000/svg">
<path d="M18.216 7.6491L11.3887 1.23911C10.3394 0.253958 8.66031 0.253955 7.61103 1.23911L0.783925 7.64915C0.421576 7.9894 0.403667 8.55897 0.743924 8.92131C0.798982 8.97995 0.860044 9.02956 0.925261 9.0701C1.15971 9.21582 1.39976 9.42895 1.39976 9.705V15.0652C1.39976 17.015 3.06586 18.5002 4.99981 18.5002C5.27595 18.5002 5.5 18.2764 5.5 18.0002V13.5002C5.5 11.8434 6.84315 10.5002 8.5 10.5002H10.5C12.1569 10.5002 13.5 11.8434 13.5 13.5002V18.0003C13.5 18.2764 13.7238 18.5002 13.9999 18.5002C15.9339 18.5002 17.6 17.015 17.6 15.0652V9.70514C17.6 9.42903 17.8401 9.21588 18.0746 9.07016C18.1399 9.0296 18.201 8.97995 18.2561 8.92126C18.5964 8.5589 18.5784 7.98933 18.216 7.6491Z" fill="#47C8D1"/>
<path d="M11 18.5002C11.2761 18.5002 11.5 18.2764 11.5 18.0002V13.5002C11.5 12.948 11.0523 12.5002 10.5 12.5002H8.5C7.94772 12.5002 7.5 12.948 7.5 13.5002V18.0002C7.5 18.2764 7.72386 18.5002 8 18.5002H11Z" fill="#47C8D1"/>
</svg>
