<svg width="63" height="32" viewBox="0 0 63 32" fill="none" xmlns="http://www.w3.org/2000/svg">
<path fill-rule="evenodd" clip-rule="evenodd" d="M7.05784 5.9999C7.57854 5.4792 8.42276 5.4792 8.94346 5.9999L12.4721 9.52849C12.7324 9.78884 12.7324 10.211 12.4721 10.4713C12.2117 10.7317 11.7896 10.7317 11.5292 10.4713L8.00065 6.94271L4.47206 10.4713C4.21171 10.7317 3.7896 10.7317 3.52925 10.4713C3.2689 10.211 3.2689 9.78884 3.52925 9.52849L7.05784 5.9999Z" fill="#2D3039"/>
<path fill-rule="evenodd" clip-rule="evenodd" d="M7.05784 26.0001C7.57854 26.5208 8.42276 26.5208 8.94346 26.0001L12.4721 22.4715C12.7324 22.2112 12.7324 21.789 12.4721 21.5287C12.2117 21.2683 11.7896 21.2683 11.5292 21.5287L8.00065 25.0573L4.47206 21.5287C4.21171 21.2683 3.7896 21.2683 3.52925 21.5287C3.2689 21.789 3.2689 22.2112 3.52925 22.4715L7.05784 26.0001Z" fill="#2D3039"/>
<path fill-rule="evenodd" clip-rule="evenodd" d="M22.5 28C22.2239 28 22 27.7761 22 27.5L22 4.5C22 4.22386 22.2239 4 22.5 4C22.7761 4 23 4.22386 23 4.5L23 27.5C23 27.7761 22.7761 28 22.5 28Z" fill="#E3E4E8"/>
<path d="M29.6785 17.464C30.0891 17.3707 30.5558 17.2587 31.0785 17.128C31.6011 16.988 32.1471 16.8433 32.7165 16.694C33.2951 16.5447 33.8691 16.3907 34.4385 16.232L34.6065 17.506C33.8131 17.73 33.0105 17.9587 32.1985 18.192C31.3958 18.4253 30.6585 18.6307 29.9865 18.808L29.6785 17.464ZM29.8745 12.942H34.4665V14.23H29.8745V12.942ZM31.5965 10.184H32.9405V21.664C32.9405 22.0093 32.8985 22.2753 32.8145 22.462C32.7398 22.658 32.5998 22.812 32.3945 22.924C32.1891 23.0267 31.9278 23.092 31.6105 23.12C31.3025 23.1573 30.9058 23.1713 30.4205 23.162C30.4018 22.9847 30.3551 22.7747 30.2805 22.532C30.2058 22.2987 30.1265 22.0933 30.0425 21.916C30.3318 21.9253 30.5978 21.93 30.8405 21.93C31.0831 21.93 31.2511 21.9253 31.3445 21.916C31.4285 21.916 31.4891 21.902 31.5265 21.874C31.5731 21.8367 31.5965 21.7667 31.5965 21.664V10.184ZM35.1245 12.69H42.1105V23.036H40.7385V13.936H36.4405V23.12H35.1245V12.69ZM35.9225 16.862H41.2845V18.122H35.9225V16.862ZM35.9225 21.118H41.2845V22.378H35.9225V21.118ZM38.0225 10.198L39.5765 10.38C39.4178 10.9213 39.2451 11.4673 39.0585 12.018C38.8718 12.5687 38.6898 13.0353 38.5125 13.418L37.2945 13.194C37.3971 12.9233 37.4951 12.6153 37.5885 12.27C37.6818 11.9153 37.7658 11.5607 37.8405 11.206C37.9151 10.842 37.9758 10.506 38.0225 10.198ZM43.4405 24.52L47.3325 10.814H48.4385L44.5745 24.52H43.4405ZM51.4015 15.406H59.2135V16.694H51.4015V15.406ZM58.7795 15.406H60.1655C60.1655 15.406 60.1609 15.448 60.1515 15.532C60.1515 15.6067 60.1515 15.6907 60.1515 15.784C60.1515 15.8773 60.1469 15.952 60.1375 16.008C60.0909 17.0813 60.0395 18.0007 59.9835 18.766C59.9369 19.5313 59.8809 20.166 59.8155 20.67C59.7595 21.174 59.6849 21.5753 59.5915 21.874C59.5075 22.1633 59.4049 22.3733 59.2835 22.504C59.1249 22.7093 58.9522 22.8493 58.7655 22.924C58.5882 23.008 58.3689 23.0593 58.1075 23.078C57.8742 23.106 57.5569 23.12 57.1555 23.12C56.7635 23.12 56.3529 23.1107 55.9235 23.092C55.9142 22.8867 55.8675 22.658 55.7835 22.406C55.7089 22.1633 55.6109 21.944 55.4895 21.748C55.9189 21.7853 56.3155 21.8133 56.6795 21.832C57.0529 21.8413 57.3235 21.846 57.4915 21.846C57.6315 21.846 57.7435 21.832 57.8275 21.804C57.9209 21.776 58.0049 21.7247 58.0795 21.65C58.2009 21.5287 58.3035 21.258 58.3875 20.838C58.4715 20.4087 58.5415 19.774 58.5975 18.934C58.6629 18.094 58.7235 17.002 58.7795 15.658V15.406ZM53.1655 10.422L54.5795 10.828C54.2342 11.6307 53.8282 12.4007 53.3615 13.138C52.8949 13.866 52.3862 14.538 51.8355 15.154C51.2849 15.77 50.7109 16.302 50.1135 16.75C50.0389 16.6567 49.9315 16.5447 49.7915 16.414C49.6515 16.274 49.5069 16.1387 49.3575 16.008C49.2082 15.8773 49.0822 15.7747 48.9795 15.7C49.5675 15.308 50.1229 14.8367 50.6455 14.286C51.1775 13.7353 51.6582 13.1333 52.0875 12.48C52.5262 11.8173 52.8855 11.1313 53.1655 10.422ZM58.2475 10.394C58.4715 10.8513 58.7422 11.318 59.0595 11.794C59.3862 12.27 59.7362 12.7367 60.1095 13.194C60.4922 13.642 60.8842 14.062 61.2855 14.454C61.6869 14.8367 62.0789 15.168 62.4615 15.448C62.3495 15.5413 62.2189 15.658 62.0695 15.798C61.9295 15.938 61.7942 16.0827 61.6635 16.232C61.5329 16.372 61.4255 16.5027 61.3415 16.624C60.9589 16.288 60.5622 15.9053 60.1515 15.476C59.7502 15.0373 59.3535 14.566 58.9615 14.062C58.5789 13.558 58.2149 13.04 57.8695 12.508C57.5335 11.9667 57.2302 11.4347 56.9595 10.912L58.2475 10.394ZM54.1455 15.784H55.5875C55.5129 16.5587 55.3962 17.3147 55.2375 18.052C55.0789 18.78 54.8269 19.4707 54.4815 20.124C54.1362 20.7773 53.6509 21.37 53.0255 21.902C52.4095 22.434 51.5975 22.8867 50.5895 23.26C50.5335 23.1387 50.4589 23.0033 50.3655 22.854C50.2722 22.7047 50.1695 22.56 50.0575 22.42C49.9455 22.28 49.8335 22.1633 49.7215 22.07C50.6549 21.762 51.3969 21.384 51.9475 20.936C52.5075 20.488 52.9322 19.9887 53.2215 19.438C53.5202 18.878 53.7302 18.29 53.8515 17.674C53.9822 17.058 54.0802 16.428 54.1455 15.784Z" fill="#2D3039"/>
</svg>
