<svg width="41" height="40" viewBox="0 0 41 40" fill="none" xmlns="http://www.w3.org/2000/svg">
<path d="M9.85205 25.0338L10.6555 24.2387C11.5901 23.3138 12.8577 22.7942 14.1794 22.7942H19.1628C20.4603 22.7942 21.5121 23.8351 21.5121 25.119C21.5121 26.4029 20.4603 27.4438 19.1628 27.4438H21.7971C23.1188 27.4438 24.3864 26.9242 25.3209 25.9994L31.4963 19.8882C32.4694 18.9253 34.0471 18.9253 35.0202 19.8882C35.9933 20.8512 35.9933 22.4125 35.0202 23.3754L28.1448 30.1793C25.0243 33.2672 20.8115 34.9993 16.4215 34.9993H6.58333C6.1231 34.9993 5.75 34.6263 5.75 34.166V27.949C5.75 27.5547 6.02799 27.2188 6.40567 27.1054C7.69058 26.7196 8.86247 26.013 9.85205 25.0338Z" fill="#1F747A"/>
<path d="M13.3984 19.9992V5.19922H18.2584C21.5184 5.19922 24.0384 6.33922 24.0384 9.85922C24.0384 13.2392 21.5184 14.7392 18.3384 14.7392H16.3584V19.9992H13.3984ZM16.3584 12.3992H18.1384C20.1784 12.3992 21.1584 11.5392 21.1584 9.85922C21.1584 8.11922 20.0784 7.55922 18.0384 7.55922H16.3584V12.3992Z" fill="#1F747A"/>
</svg>
