<svg width="40" height="40" viewBox="0 0 40 40" fill="none" xmlns="http://www.w3.org/2000/svg">
<path d="M22.083 5.00024H24.583C25.0432 5.00024 25.4163 5.37334 25.4163 5.83358V9.16691C25.4163 9.39703 25.6029 9.58358 25.833 9.58358H29.1663C29.6266 9.58358 29.9997 9.95667 29.9997 10.4169V12.9169C29.9997 13.3771 29.6266 13.7502 29.1663 13.7502H25.833C25.6029 13.7502 25.4163 13.9368 25.4163 14.1669V17.5002C25.4163 17.9605 25.0432 18.3336 24.583 18.3336H22.083C21.6228 18.3336 21.2497 17.9605 21.2497 17.5002V14.1669C21.2497 13.9368 21.0631 13.7502 20.833 13.7502H17.4997C17.0394 13.7502 16.6663 13.3771 16.6663 12.9169V10.4169C16.6663 9.95667 17.0394 9.58358 17.4997 9.58358H20.833C21.0631 9.58358 21.2497 9.39703 21.2497 9.16691V5.83358C21.2497 5.37334 21.6228 5.00024 22.083 5.00024Z" fill="#1F747A"/>
<path d="M10.7684 23.368L11.5719 22.5729C12.5064 21.648 13.774 21.1284 15.0957 21.1284H20.0792C21.3766 21.1284 22.4284 22.1693 22.4284 23.4532C22.4284 24.7372 21.3766 25.778 20.0792 25.778H22.7134C24.0351 25.778 25.3027 25.2584 26.2373 24.3336L32.4127 18.2225C33.3858 17.2595 34.9634 17.2595 35.9365 18.2225C36.9096 19.1854 36.9096 20.7467 35.9365 21.7096L29.0611 28.5135C25.9407 31.6015 21.7279 33.3336 17.3378 33.3336H4.99967C4.0792 33.3336 3.33301 32.5874 3.33301 31.6669V27.2732C3.33301 26.3527 4.0792 25.6065 4.99967 25.6065H6.66634C8.33301 25.6065 9.61286 24.5115 10.7684 23.368Z" fill="#1F747A"/>
</svg>
