<svg width="47" height="33" viewBox="0 0 47 33" fill="none" xmlns="http://www.w3.org/2000/svg">
<path d="M25.4891 5.85938C37.3292 1.17711 23.9782 4.25246 23.9782 4.25246L22.0312 5.09742" fill="#FFEB3D"/>
<path d="M25.4906 6.28673C25.391 6.28704 25.2943 6.2525 25.2174 6.18908C25.1405 6.12566 25.0883 6.03735 25.0696 5.93944C25.0509 5.84153 25.0671 5.74019 25.1153 5.65294C25.1635 5.56569 25.2406 5.49803 25.3334 5.46166C27.5634 4.57999 28.732 4.03721 29.3429 3.71016C28.1724 3.81918 25.9867 4.22808 24.0757 4.66873C23.9674 4.68877 23.8554 4.6662 23.7633 4.60572C23.6712 4.54524 23.6059 4.45153 23.5812 4.34413C23.5565 4.23672 23.5742 4.12392 23.6306 4.02925C23.6871 3.93458 23.7779 3.86535 23.8841 3.83601C23.8994 3.83219 25.4677 3.47186 27.0379 3.18728C30.0574 2.64068 30.6361 2.77226 30.7922 3.2722C30.9383 3.74268 30.4762 4.0854 29.5739 4.55283C28.7523 4.97779 27.4315 5.55117 25.6478 6.25651C25.5979 6.27669 25.5445 6.28669 25.4906 6.28673Z" fill="#2C2E35"/>
<path d="M23.3668 4.19592C23.3668 4.19592 6.68072 1.80945 21.7913 5.97266L23.3668 4.19592Z" fill="#FFEB3D"/>
<path d="M21.7922 6.40039C21.7542 6.40039 21.7159 6.39529 21.6774 6.38509C19.4061 5.75931 17.7169 5.24293 16.6582 4.85086C15.4816 4.41556 14.9392 4.11951 15.044 3.61536C15.1431 3.14105 15.7004 3.06723 16.7622 3.09209C17.4346 3.10739 18.3573 3.17509 19.5067 3.29252C20.8163 3.43003 22.1234 3.59045 23.4274 3.77371C23.5395 3.78979 23.6407 3.84977 23.7086 3.94044C23.7766 4.03111 23.8057 4.14506 23.7896 4.25721C23.7735 4.36936 23.7136 4.47052 23.6229 4.53845C23.5322 4.60639 23.4183 4.63552 23.3061 4.61944C20.2904 4.18836 17.9281 3.97109 16.6754 3.94431C17.4702 4.25376 18.9922 4.75867 21.905 5.56156C22.0049 5.58868 22.0916 5.65119 22.1488 5.73745C22.2061 5.8237 22.23 5.92782 22.2162 6.03043C22.2024 6.13303 22.1518 6.22711 22.0738 6.29517C21.9958 6.36323 21.8957 6.40063 21.7922 6.40039Z" fill="#2C2E35"/>
<path d="M21.3945 5.32341C21.3945 5.32341 22.5489 -3.48992 24.0201 2.85395L24.2851 5.45117" fill="#FFEB3D"/>
<path d="M24.2864 5.87891C24.0699 5.87891 23.884 5.71443 23.8622 5.49525L23.5987 2.92442C23.2892 1.59789 23.0417 1.16604 22.932 1.02948C22.5847 1.43226 22.0828 3.37234 21.8196 5.37935C21.8049 5.49171 21.7461 5.59359 21.6562 5.6626C21.5663 5.7316 21.4527 5.76208 21.3404 5.74732C21.228 5.73256 21.1261 5.67377 21.0571 5.58389C20.9881 5.49401 20.9576 5.3804 20.9724 5.26804C20.9789 5.21908 21.1323 4.05435 21.4019 2.86322C21.8342 0.953749 22.2683 0.162344 22.9014 0.13136C23.5535 0.100377 23.9976 0.860799 24.4375 2.75765C24.4417 2.77514 24.4446 2.79291 24.4463 2.81082L24.7118 5.40804C24.7179 5.46753 24.7115 5.52766 24.6929 5.58451C24.6744 5.64137 24.644 5.69368 24.6039 5.73805C24.5638 5.78242 24.5148 5.81785 24.4601 5.84205C24.4054 5.86625 24.3462 5.87868 24.2864 5.87852" fill="#2C2E35"/>
<path d="M16.1111 16.3207C16.1111 16.3207 7.73998 6.04238 5.01845 3.52817C5.01845 3.52817 1.23163 -0.355425 0.470441 3.94433C0.470441 3.94433 0.101703 5.69774 1.48332 7.78279C2.99804 10.0671 5.52412 13.8933 11.134 19.8184" fill="#FFEB3D"/>
<path d="M1.90617 2.82935C2.19305 1.66805 2.73927 1.42631 2.52315 1.82526C-0.0392607 1.59538 0.974 3.13229 0.689797 4.28402C0.689797 4.28402 -2.91533 4.18916 10.7038 18.9987L12.925 19.3594C0.137075 5.25062 1.90617 2.82935 1.90617 2.82935Z" fill="#FF9027"/>
<path d="M11.1358 20.2461C11.023 20.2461 10.9101 20.2013 10.826 20.1122C5.21843 14.191 2.67285 10.3491 1.15163 8.05407L1.12906 8.01965C-0.299989 5.86231 0.0213186 4.0236 0.0519191 3.86563C0.279511 2.58729 0.796276 1.81539 1.58845 1.57135C2.29035 1.35485 3.14295 1.58015 4.1237 2.24074C4.5505 2.53099 4.95007 2.85938 5.3175 3.22187C8.03751 5.73915 16.1023 15.6319 16.4446 16.0515C16.5132 16.1397 16.5445 16.2513 16.5318 16.3623C16.5192 16.4732 16.4637 16.5749 16.3771 16.6455C16.2905 16.716 16.1797 16.7499 16.0684 16.7398C15.9572 16.7298 15.8543 16.6766 15.7817 16.5916C15.6984 16.4891 7.39834 6.30793 4.73036 3.84268C4.72449 3.83783 4.71901 3.83273 4.71391 3.82738C4.38208 3.49996 4.02102 3.20356 3.63524 2.94188C3.11809 2.59571 2.38827 2.21893 1.83899 2.388C1.37769 2.53106 1.05906 3.07957 0.892668 4.01939L0.890374 4.03278C0.890374 4.03431 0.81196 4.43977 0.890374 5.07244C0.961903 5.65499 1.18528 6.55694 1.84128 7.54725L1.86423 7.58206C3.36978 9.85415 5.88973 13.6567 11.446 19.5247C11.5035 19.5853 11.542 19.6614 11.5567 19.7437C11.5714 19.8259 11.5617 19.9107 11.5287 19.9874C11.4958 20.0642 11.441 20.1296 11.3712 20.1756C11.3015 20.2216 11.2197 20.2461 11.1362 20.2461" fill="#2C2E35"/>
<path d="M30.1992 16.3207C30.1992 16.3207 38.57 6.04238 41.2923 3.52817C41.2923 3.52817 45.0791 -0.355425 45.8407 3.94433C45.8407 3.94433 46.2083 5.69774 44.827 7.78279C43.3123 10.0671 40.7878 13.8933 35.1768 19.8184" fill="#FFEB3D"/>
<path d="M44.4028 2.82935C44.1148 1.66805 43.5701 1.42631 43.7862 1.82526C46.3475 1.59538 45.3342 3.13229 45.6173 4.28402C45.6173 4.28402 49.2243 4.18916 35.604 18.9987L33.3828 19.3594C46.1723 5.25062 44.4028 2.82935 44.4028 2.82935Z" fill="#FF9027"/>
<path d="M35.1749 20.2461C35.0912 20.2464 35.0093 20.2221 34.9393 20.1762C34.8693 20.1303 34.8143 20.0649 34.7812 19.988C34.7482 19.9111 34.7384 19.8262 34.7532 19.7439C34.7679 19.6615 34.8066 19.5853 34.8643 19.5247C40.4153 13.6628 42.9352 9.86103 44.4404 7.58932L44.4683 7.54725C45.7359 5.63318 45.4234 4.04808 45.42 4.03239L45.4177 4.01939C45.2513 3.07957 44.9331 2.53144 44.4714 2.38799C43.9229 2.21854 43.1923 2.5957 42.6763 2.94187C42.2901 3.2035 41.9286 3.4999 41.5965 3.82737C41.5914 3.83272 41.5859 3.83795 41.58 3.84305C38.9109 6.30792 30.612 16.4891 30.5286 16.592C30.457 16.6799 30.3533 16.7357 30.2405 16.7472C30.1276 16.7587 30.0148 16.7249 29.9269 16.6532C29.839 16.5815 29.7832 16.4779 29.7717 16.365C29.7603 16.2522 29.7941 16.1394 29.8657 16.0515C30.2081 15.6319 38.2721 5.73914 40.9936 3.22224C41.3605 2.85916 41.76 2.53061 42.187 2.24073C43.1674 1.58052 44.02 1.35523 44.7231 1.57134C45.5141 1.81538 46.0312 2.58728 46.2584 3.86562C46.2898 4.02283 46.6104 5.8623 45.1809 8.01964L45.1526 8.06172C43.6322 10.3568 41.087 14.1971 35.4848 20.1122C35.4452 20.1547 35.3972 20.1885 35.3439 20.2116C35.2905 20.2346 35.233 20.2464 35.1749 20.2461Z" fill="#2C2E35"/>
<path d="M37.8341 19.7857C37.7481 27.5338 30.6851 31.3619 22.0259 31.282C13.3659 31.2028 6.38941 27.2439 6.47739 19.4954C6.56421 11.7474 13.6532 5.53201 22.312 5.61157C30.972 5.69228 37.9221 12.0377 37.8341 19.7857Z" fill="#FFEB3D"/>
<path d="M22.1451 6.039C18.0959 6.039 14.2819 7.44089 11.4066 9.98647C8.54205 12.5225 6.94279 15.9016 6.90148 19.5009C6.87012 22.3173 7.79272 24.7026 9.64329 26.5918C12.2895 29.2923 16.6872 30.8063 22.0266 30.8553C22.1145 30.8558 22.2023 30.8562 22.2897 30.8564C26.6055 30.8564 30.3052 29.8887 32.9888 28.0572C35.8393 26.1126 37.3655 23.251 37.4041 19.7821C37.4423 16.4401 36.1066 13.2144 33.6429 10.6995C30.7818 7.77865 26.6488 6.07993 22.3054 6.03977L22.1451 6.039ZM22.2897 31.7109C22.1997 31.7109 22.1096 31.7106 22.0193 31.7098C16.4508 31.6589 11.8393 30.0535 9.03434 27.1905C7.01777 25.1326 6.01331 22.5426 6.04773 19.4918C6.09019 15.6476 7.79311 12.0444 10.8405 9.34654C13.8723 6.66249 17.8871 5.18449 22.1451 5.18449C22.201 5.18449 22.2571 5.18474 22.3134 5.18525C26.8833 5.22733 31.2354 7.01937 34.2538 10.1012C36.877 12.7799 38.2995 16.2213 38.2586 19.7913C38.2173 23.5521 36.5622 26.6546 33.4708 28.7633C30.6452 30.6912 26.7788 31.7109 22.2901 31.7109" fill="#2C2E35"/>
<path d="M27.6485 8.60654C21.4534 10.8469 16.9222 8.38774 16.9222 8.38774L15.1523 10.7184C15.1523 10.7184 20.9029 14.6391 28.8977 11.2244L27.6485 8.60654Z" fill="white"/>
<path d="M15.6887 10.6148C16.5391 11.0903 18.963 12.255 22.3375 12.255H22.3383C24.3514 12.255 26.3886 11.8442 28.3983 11.0348L27.457 9.06147C25.7892 9.62834 24.092 9.91522 22.4071 9.91522C19.6699 9.91522 17.7313 9.16704 17.0306 8.84918L15.6887 10.6148ZM22.3383 12.9879H22.3375C17.8797 12.9879 15.0618 11.1014 14.9436 11.021L14.625 10.8038L16.8183 7.91586L17.0948 8.06618C17.1151 8.07689 19.2025 9.18234 22.4071 9.18234C24.1127 9.18234 25.8332 8.87251 27.5212 8.26241L27.8333 8.14995L29.3901 11.4116L29.039 11.5615C26.8239 12.5082 24.5694 12.9883 22.3383 12.9883" fill="#2C2E35"/>
<path d="M18.5933 12.1133L17.9102 11.8474L19.0206 8.99661L19.703 9.26246L18.5933 12.1133Z" fill="#2C2E35"/>
<path d="M22.4981 12.4902L21.7656 12.4734L21.8356 9.44625L22.5685 9.46346L22.4981 12.4902Z" fill="#2C2E35"/>
<path d="M25.4716 12.2812L25 9.52414L25.7222 9.40059L26.1942 12.1577L25.4716 12.2812Z" fill="#2C2E35"/>
<path d="M29.2526 18.2793C29.4144 16.4815 26.7013 14.1383 23.1268 13.8296C19.5523 13.519 16.286 15.9395 16.125 17.7369" fill="#FF9027"/>
<path d="M35.3771 24.5396C36.1153 29.5271 29.4024 31.769 22.134 31.7017C14.8644 31.6347 8.11509 28.5984 9.05223 24.2975C9.90905 20.3645 15.0266 17.0692 22.2973 17.1366C29.5668 17.2035 34.79 20.5619 35.3771 24.5396Z" fill="white"/>
<path d="M22.0794 17.5631C18.7474 17.5631 15.7512 18.2765 13.4149 19.6267C11.269 20.866 9.86829 22.5579 9.46933 24.3889C9.24862 25.4018 9.50261 26.373 10.2229 27.2765C12.0933 29.6193 16.8812 31.2266 22.138 31.2748C22.2435 31.276 22.3464 31.2763 22.4516 31.2763C27.8583 31.2763 32.1788 30.0102 34.0083 27.8892C34.8207 26.9494 35.1382 25.8428 34.955 24.6024C34.6823 22.7587 33.3228 21.0317 31.1261 19.7403C28.7924 18.3683 25.6555 17.5952 22.2936 17.5639L22.0794 17.5631ZM22.452 32.1309C22.3446 32.1309 22.2373 32.1304 22.1299 32.1293C19.4742 32.1048 16.8892 31.6971 14.6557 30.9504C12.3416 30.177 10.5778 29.0907 9.55502 27.8093C8.67869 26.7111 8.36045 25.4657 8.6347 24.2072C9.0853 22.1379 10.6314 20.2483 12.9869 18.8866C15.4533 17.4617 18.5975 16.7086 22.0798 16.7086C22.153 16.7086 22.2267 16.709 22.3009 16.7097C25.8617 16.7426 29.0632 17.5356 31.5595 19.004C33.983 20.4285 35.4894 22.3723 35.7999 24.4773C36.0218 25.9748 35.637 27.3109 34.6562 28.4477C33.6051 29.666 31.9129 30.6085 29.6271 31.2496C27.5726 31.826 25.092 32.1309 22.452 32.1309Z" fill="#2C2E35"/>
<path d="M21.2298 27.3223H21.1961C20.4541 27.3031 19.9759 26.6544 19.9557 26.6269C19.9193 26.5698 19.9061 26.501 19.9187 26.4345C19.9313 26.368 19.9688 26.3089 20.0235 26.2691C20.0783 26.2293 20.1461 26.2118 20.2132 26.2203C20.2804 26.2288 20.3417 26.2626 20.3848 26.3147C20.3917 26.3235 20.736 26.7814 21.2126 26.791C21.5435 26.7994 21.8835 26.5886 22.2228 26.1675C22.2662 26.1136 22.3289 26.0789 22.3976 26.0707C22.4663 26.0625 22.5355 26.0814 22.5904 26.1235C22.8187 26.2979 23.5287 26.7213 24.0554 26.5836C24.3086 26.5175 24.5002 26.3281 24.6398 26.0061C24.6678 25.9414 24.7203 25.8906 24.7857 25.8646C24.8512 25.8387 24.9243 25.8398 24.9889 25.8678C25.0535 25.8957 25.1044 25.9482 25.1303 26.0137C25.1562 26.0791 25.1551 26.1522 25.1272 26.2168C24.9206 26.6927 24.6043 26.9895 24.187 27.0973C23.5329 27.2676 22.8195 26.9015 22.4752 26.6865C22.082 27.1084 21.6643 27.3223 21.2298 27.3223Z" fill="#2C2E35"/>
<path d="M21.1211 27.0318C21.1211 27.0318 22.1301 27.1512 22.4327 26.3605C22.4327 26.3605 23.1813 27.0961 23.9218 26.9002C23.9218 26.9002 24.0538 29.5472 22.5444 29.5801C22.5444 29.5801 21.2274 29.4359 21.1211 27.0318Z" fill="#FF2E4B"/>
<path d="M21.4049 27.299C21.564 29.0497 22.4281 29.288 22.5608 29.3148C22.6688 29.3117 22.7751 29.2866 22.873 29.2411C22.971 29.1956 23.0587 29.1306 23.1308 29.0501C23.5634 28.5857 23.6445 27.6654 23.6567 27.1988C23.1927 27.1976 22.7693 26.9555 22.5092 26.7673C22.2024 27.1747 21.714 27.2772 21.4049 27.299ZM22.544 29.8457C22.5343 29.8456 22.5246 29.8451 22.5149 29.8442C22.4514 29.8377 20.9708 29.6453 20.8556 27.0438C20.853 26.9662 20.8832 26.8908 20.9402 26.8373C20.9975 26.7845 21.0748 26.76 21.1521 26.7684C21.1521 26.7684 21.1941 26.7734 21.263 26.7734C21.5346 26.7734 22.0165 26.7076 22.1848 26.2662C22.2006 26.225 22.2263 26.1885 22.2597 26.1598C22.2932 26.131 22.3332 26.1111 22.3763 26.1018C22.4193 26.0924 22.464 26.094 22.5063 26.1063C22.5487 26.1185 22.5872 26.1412 22.6186 26.1721C22.6232 26.1759 23.1342 26.6686 23.6617 26.6686C23.7275 26.6686 23.7925 26.6602 23.853 26.6445C23.8912 26.6342 23.9312 26.6326 23.9701 26.6399C24.009 26.6471 24.0458 26.663 24.0778 26.6863C24.1098 26.7097 24.1361 26.7399 24.1548 26.7748C24.1736 26.8096 24.1843 26.8482 24.1861 26.8878C24.1892 26.9578 24.2634 28.6117 23.519 29.4108C23.3965 29.5467 23.247 29.6556 23.08 29.7305C22.9131 29.8054 22.7323 29.8446 22.5494 29.8457H22.544Z" fill="#2C2E35"/>
<path d="M22.3993 25.8435C22.7887 25.8351 23.1016 25.6331 23.0978 25.3918C23.0925 25.1508 22.7723 24.9626 22.3818 24.971C21.9916 24.9787 21.6779 25.181 21.6837 25.4216C21.689 25.663 22.008 25.8512 22.399 25.8435" fill="#FF2E4B"/>
<path d="M17.1762 24.3131C17.0576 25.4741 16.2926 26.3481 15.4702 26.2639C14.6478 26.1798 14.0779 25.1696 14.1949 24.0087C14.315 22.8459 15.0785 21.9737 15.9013 22.0583C16.7244 22.1413 17.294 23.1522 17.1762 24.3131Z" fill="#2C2E35"/>
<path d="M31.0963 24.7617C31.1165 25.9291 30.4621 26.8873 29.6351 26.9022C28.8077 26.9152 28.1215 25.9804 28.102 24.813C28.0817 23.6452 28.7362 22.6874 29.5624 22.674C30.3906 22.6598 31.076 23.5939 31.0963 24.7617Z" fill="#2C2E35"/>
</svg>
