<svg width="24" height="25" viewBox="0 0 24 25" fill="none" xmlns="http://www.w3.org/2000/svg">
<path fill-rule="evenodd" clip-rule="evenodd" d="M12.1919 6.25297C12.0861 6.36829 11.9016 6.3683 11.7958 6.25302C9.98022 4.27462 7.11294 3.80139 4.93922 5.71439C2.68468 7.69853 2.36727 11.0159 4.13778 13.3625C5.38683 15.018 8.78346 18.2315 10.6759 19.9807C11.4249 20.6731 12.5627 20.6731 13.3118 19.9807C15.2042 18.2315 18.6008 15.018 19.8499 13.3625C21.6204 11.0159 21.3417 7.67765 19.0484 5.71439C16.8374 3.82155 14.0049 4.27605 12.1919 6.25297ZM11.25 8.5H12.75C13.0261 8.5 13.25 8.72386 13.25 9V11C13.25 11.1381 13.3619 11.25 13.5 11.25H15.5C15.7761 11.25 16 11.4739 16 11.75V13.25C16 13.5261 15.7761 13.75 15.5 13.75H13.5C13.3619 13.75 13.25 13.8619 13.25 14V16C13.25 16.2761 13.0261 16.5 12.75 16.5H11.25C10.9739 16.5 10.75 16.2761 10.75 16V14C10.75 13.8619 10.6381 13.75 10.5 13.75H8.5C8.22386 13.75 8 13.5261 8 13.25V11.75C8 11.4739 8.22386 11.25 8.5 11.25H10.5C10.6381 11.25 10.75 11.1381 10.75 11V9C10.75 8.72386 10.9739 8.5 11.25 8.5Z" fill="#47C8D1"/>
</svg>
