<svg width="41" height="40" viewBox="0 0 41 40" fill="none" xmlns="http://www.w3.org/2000/svg">
<path fill-rule="evenodd" clip-rule="evenodd" d="M20.7487 36.6663C11.544 36.6663 4.08203 29.2044 4.08203 19.9997C4.08203 10.7949 11.544 3.33301 20.7487 3.33301C29.9534 3.33301 37.4154 10.7949 37.4154 19.9997C37.4154 29.2044 29.9534 36.6663 20.7487 36.6663ZM22.4154 12.4997C22.4154 13.4201 21.6692 14.1663 20.7487 14.1663C19.8282 14.1663 19.082 13.4201 19.082 12.4997C19.082 11.5792 19.8282 10.833 20.7487 10.833C21.6692 10.833 22.4154 11.5792 22.4154 12.4997ZM18.2487 17.4997C18.2487 16.5792 18.9949 15.833 19.9154 15.833H20.7487C21.6692 15.833 22.4154 16.5792 22.4154 17.4997V25.833C23.3358 25.833 24.082 26.5792 24.082 27.4997C24.082 28.4201 23.3358 29.1663 22.4154 29.1663H19.082C18.1616 29.1663 17.4154 28.4201 17.4154 27.4997C17.4154 26.5792 18.1616 25.833 19.082 25.833V18.9434C18.5839 18.6552 18.2487 18.1166 18.2487 17.4997Z" fill="#1F747A"/>
</svg>
