<svg width="16" height="16" viewBox="0 0 16 16" fill="none" xmlns="http://www.w3.org/2000/svg">
<path fill-rule="evenodd" clip-rule="evenodd" d="M8.00004 14.6668C4.31814 14.6668 1.33337 11.6821 1.33337 8.00016C1.33337 4.31826 4.31814 1.3335 8.00004 1.3335C11.6819 1.3335 14.6667 4.31826 14.6667 8.00016C14.6667 11.6821 11.6819 14.6668 8.00004 14.6668ZM8.66671 5.00016C8.66671 5.36835 8.36823 5.66683 8.00004 5.66683C7.63185 5.66683 7.33337 5.36835 7.33337 5.00016C7.33337 4.63197 7.63185 4.3335 8.00004 4.3335C8.36823 4.3335 8.66671 4.63197 8.66671 5.00016ZM7.00004 7.00016C7.00004 6.63197 7.29852 6.3335 7.66671 6.3335H8.00004C8.36823 6.3335 8.66671 6.63197 8.66671 7.00016V10.3335C9.0349 10.3335 9.33337 10.632 9.33337 11.0002C9.33337 11.3684 9.0349 11.6668 8.66671 11.6668H7.33337C6.96518 11.6668 6.66671 11.3684 6.66671 11.0002C6.66671 10.632 6.96518 10.3335 7.33337 10.3335V7.57764C7.13411 7.46237 7.00004 7.24692 7.00004 7.00016Z" fill="#5A6172"/>
</svg>
