<svg width="24" height="24" viewBox="0 0 24 24" fill="none" xmlns="http://www.w3.org/2000/svg">
<path fill-rule="evenodd" clip-rule="evenodd" d="M18 3H6C4.34315 3 3 4.34315 3 6V13.9821C3 14.2049 3.26929 14.3164 3.42678 14.1589L4.73205 12.8536C5.70836 11.8773 7.29129 11.8773 8.2676 12.8536L8.64628 13.2322C8.84154 13.4275 9.15812 13.4275 9.35339 13.2322L11.8022 10.7835C12.6942 9.89143 14.049 9.65275 15.1921 10.1862L20.6443 12.7306C20.81 12.8079 21 12.6869 21 12.504V6C21 4.34315 19.6569 3 18 3ZM8.5 10C9.32843 10 10 9.32843 10 8.5C10 7.67157 9.32843 7 8.5 7C7.67157 7 7 7.67157 7 8.5C7 9.32843 7.67157 10 8.5 10Z" fill="#217C82"/>
<path d="M3 18V17.6213C3 17.4887 3.05268 17.3615 3.14644 17.2677L6.14628 14.2678C6.34154 14.0725 6.65813 14.0725 6.85339 14.2678L7.23207 14.6465C8.20838 15.6228 9.79129 15.6228 10.7676 14.6465L13.2164 12.1977C13.5137 11.9003 13.9653 11.8208 14.3464 11.9986L16.3583 12.9375C16.5673 13.035 16.5473 13.3515 16.3352 13.4424C14.3739 14.283 13 16.231 13 18.5C13 19.2551 13.1522 19.9746 13.4275 20.6296C13.4999 20.8018 13.378 21 13.1911 21H6C4.34315 21 3 19.6569 3 18Z" fill="#217C82"/>
<path fill-rule="evenodd" clip-rule="evenodd" d="M15.5963 19.2458C15.4374 19.1221 15.27 18.9605 14.9351 18.6372C14.8286 18.5345 14.7754 18.4831 14.737 18.4357C14.421 18.045 14.421 17.455 14.737 17.0643C14.7754 17.0169 14.8286 16.9655 14.935 16.8628C15.27 16.5395 15.4374 16.3779 15.5963 16.2542C16.8874 15.2486 18.6126 15.2486 19.9037 16.2542C20.0626 16.3779 20.23 16.5395 20.565 16.8628C20.6714 16.9655 20.7246 17.0169 20.763 17.0643C21.079 17.455 21.079 18.045 20.763 18.4357C20.7246 18.4831 20.6714 18.5345 20.5649 18.6372C20.23 18.9605 20.0626 19.1221 19.9037 19.2458C18.6126 20.2514 16.8874 20.2514 15.5963 19.2458ZM18.6835 17.75C18.6835 18.3187 18.2656 18.7798 17.75 18.7798C17.2344 18.7798 16.8165 18.3187 16.8165 17.75C16.8165 17.1813 17.2344 16.7202 17.75 16.7202C18.2656 16.7202 18.6835 17.1813 18.6835 17.75Z" fill="#217C82"/>
</svg>
