<svg width="51" height="32" viewBox="0 0 51 32" fill="none" xmlns="http://www.w3.org/2000/svg">
<path fill-rule="evenodd" clip-rule="evenodd" d="M7.05784 5.9999C7.57854 5.4792 8.42276 5.4792 8.94346 5.9999L12.4721 9.52849C12.7324 9.78884 12.7324 10.211 12.4721 10.4713C12.2117 10.7317 11.7896 10.7317 11.5292 10.4713L8.00065 6.94271L4.47206 10.4713C4.21171 10.7317 3.7896 10.7317 3.52925 10.4713C3.2689 10.211 3.2689 9.78884 3.52925 9.52849L7.05784 5.9999Z" fill="#2D3039"/>
<path fill-rule="evenodd" clip-rule="evenodd" d="M7.05784 26.0001C7.57854 26.5208 8.42276 26.5208 8.94346 26.0001L12.4721 22.4715C12.7324 22.2112 12.7324 21.789 12.4721 21.5287C12.2117 21.2683 11.7896 21.2683 11.5292 21.5287L8.00065 25.0573L4.47206 21.5287C4.21171 21.2683 3.7896 21.2683 3.52925 21.5287C3.2689 21.789 3.2689 22.2112 3.52925 22.4715L7.05784 26.0001Z" fill="#2D3039"/>
<path fill-rule="evenodd" clip-rule="evenodd" d="M22.5 28C22.2239 28 22 27.7761 22 27.5L22 4.5C22 4.22386 22.2239 4 22.5 4C22.7761 4 23 4.22386 23 4.5L23 27.5C23 27.7761 22.7761 28 22.5 28Z" fill="#E3E4E8"/>
<path d="M30.5881 22V10.842H32.1701V18.024H32.2261L35.2081 14.286H37.0001L34.3961 17.436L37.2941 22H35.5441L33.4581 18.514L32.1701 19.998V22H30.5881ZM38.6409 22V14.286H39.9569L40.0969 15.378H40.1249C40.4609 15.0233 40.8202 14.7247 41.2029 14.482C41.5949 14.23 42.0335 14.104 42.5189 14.104C43.0882 14.104 43.5409 14.23 43.8769 14.482C44.2129 14.7247 44.4649 15.07 44.6329 15.518C45.0155 15.1073 45.4075 14.7713 45.8089 14.51C46.2195 14.2393 46.6629 14.104 47.1389 14.104C47.9415 14.104 48.5342 14.37 48.9169 14.902C49.3089 15.4247 49.5049 16.176 49.5049 17.156V22H47.8809V17.352C47.8809 16.6893 47.7782 16.218 47.5729 15.938C47.3675 15.6487 47.0455 15.504 46.6069 15.504C46.3455 15.504 46.0702 15.588 45.7809 15.756C45.5009 15.924 45.1975 16.1853 44.8709 16.54V22H43.2609V17.352C43.2609 16.6893 43.1582 16.218 42.9529 15.938C42.7475 15.6487 42.4209 15.504 41.9729 15.504C41.7209 15.504 41.4502 15.588 41.1609 15.756C40.8715 15.924 40.5682 16.1853 40.2509 16.54V22H38.6409Z" fill="#2D3039"/>
</svg>
