<svg width="28" height="28" viewBox="0 0 28 28" fill="none" xmlns="http://www.w3.org/2000/svg">
<path d="M4.16229 9.3162L11.321 5.36428C13.0075 4.43326 14.9925 4.43326 16.679 5.36428L23.8377 9.3162C24.7208 9.80368 24.7208 11.195 23.8377 11.6825L16.679 15.6344C14.9925 16.5654 13.0075 16.5654 11.321 15.6344L4.16229 11.6825C3.27924 11.195 3.27924 9.80368 4.16229 9.3162Z" fill="black"/>
<path d="M6.22706 15.4876C6.05159 15.3908 5.83869 15.3908 5.66322 15.4876L4.16229 16.3162C3.27924 16.8037 3.27924 18.195 4.16229 18.6825L11.321 22.6344C13.0075 23.5654 14.9925 23.5654 16.679 22.6344L23.8377 18.6825C24.7208 18.195 24.7208 16.8037 23.8377 16.3162L22.3368 15.4876C22.1613 15.3908 21.9484 15.3908 21.7729 15.4876L17.8067 17.6772C15.4184 18.9956 12.5816 18.9956 10.1933 17.6772L6.22706 15.4876Z" fill="black"/>
</svg>
