<svg width="20" height="20" viewBox="0 0 20 20" fill="none" xmlns="http://www.w3.org/2000/svg">
<path fill-rule="evenodd" clip-rule="evenodd" d="M4.16797 5.83333C4.16797 5.3731 4.54106 5 5.0013 5H15.0013C15.4615 5 15.8346 5.3731 15.8346 5.83333C15.8346 6.29357 15.4615 6.66667 15.0013 6.66667H5.0013C4.54106 6.66667 4.16797 6.29357 4.16797 5.83333ZM4.16797 10C4.16797 9.53976 4.54106 9.16667 5.0013 9.16667H15.0013C15.4615 9.16667 15.8346 9.53976 15.8346 10C15.8346 10.4602 15.4615 10.8333 15.0013 10.8333H5.0013C4.54106 10.8333 4.16797 10.4602 4.16797 10ZM4.16797 14.1667C4.16797 13.7064 4.54106 13.3333 5.0013 13.3333H15.0013C15.4615 13.3333 15.8346 13.7064 15.8346 14.1667C15.8346 14.6269 15.4615 15 15.0013 15H5.0013C4.54106 15 4.16797 14.6269 4.16797 14.1667Z" fill="black"/>
</svg>
