<svg width="24" height="25" viewBox="0 0 24 25" fill="none" xmlns="http://www.w3.org/2000/svg">
<path fill-rule="evenodd" clip-rule="evenodd" d="M11.173 22.0716C6.34786 15.1401 5 13.1683 5 9.41995C5 5.59817 8.13401 2.5 12 2.5C15.866 2.5 19 5.59817 19 9.41995C19 13.1683 17.6521 15.1401 12.827 22.0716C12.4294 22.6428 11.5706 22.6428 11.173 22.0716ZM12 12.5C10.3431 12.5 9 11.1569 9 9.5C9 7.84315 10.3431 6.5 12 6.5C13.6569 6.5 15 7.84315 15 9.5C15 11.1569 13.6569 12.5 12 12.5Z" fill="#47C8D1"/>
</svg>
