<svg width="41" height="40" viewBox="0 0 41 40" fill="none" xmlns="http://www.w3.org/2000/svg">
<path d="M13.5846 6.66732V5.00065C13.5846 4.08018 14.3308 3.33398 15.2513 3.33398H25.2513C26.1718 3.33398 26.918 4.08018 26.918 5.00065V6.66732C26.918 7.58779 26.1718 8.33398 25.2513 8.33398H15.2513C14.3308 8.33398 13.5846 7.58779 13.5846 6.66732Z" fill="#1F747A"/>
<path fill-rule="evenodd" clip-rule="evenodd" d="M6.91797 10.0007C6.91797 8.44442 7.98444 7.13727 9.4264 6.77017C9.87241 6.65663 10.244 7.04321 10.3198 7.49716C10.7151 9.86364 12.7726 11.6673 15.2513 11.6673H25.2513C27.73 11.6673 29.7875 9.86364 30.1828 7.49716C30.2586 7.04321 30.6302 6.65663 31.0762 6.77017C32.5182 7.13727 33.5846 8.44442 33.5846 10.0007V33.334C33.5846 35.1749 32.0923 36.6673 30.2513 36.6673H10.2513C8.41035 36.6673 6.91797 35.1749 6.91797 33.334V10.0007ZM13.5846 15.0007C12.6642 15.0007 11.918 15.7468 11.918 16.6673C11.918 17.5878 12.6642 18.334 13.5846 18.334H26.918C27.8384 18.334 28.5846 17.5878 28.5846 16.6673C28.5846 15.7468 27.8384 15.0007 26.918 15.0007H13.5846ZM13.5846 21.6673C12.6642 21.6673 11.918 22.4135 11.918 23.334C11.918 24.2545 12.6642 25.0007 13.5846 25.0007H26.918C27.8384 25.0007 28.5846 24.2545 28.5846 23.334C28.5846 22.4135 27.8384 21.6673 26.918 21.6673H13.5846ZM13.5846 28.334C12.6642 28.334 11.918 29.0802 11.918 30.0007C11.918 30.9211 12.6642 31.6673 13.5846 31.6673H26.918C27.8384 31.6673 28.5846 30.9211 28.5846 30.0007C28.5846 29.0802 27.8384 28.334 26.918 28.334H13.5846Z" fill="#1F747A"/>
</svg>
