<svg width="24" height="24" viewBox="0 0 24 24" fill="none" xmlns="http://www.w3.org/2000/svg">
<path fill-rule="evenodd" clip-rule="evenodd" d="M17 7.00657C17 6.28281 16.2636 5.80125 15.6068 6.08334L13.2812 7.08206C11.9118 7.67015 10.4374 7.97343 8.94742 7.97343H6.5C5.12123 7.97343 4 9.09401 4 10.4807C4 11.8673 5.12123 12.9879 6.5 12.9879H8.94742C9.33502 12.9879 9.72156 13.0084 10.1055 13.0491C11.1974 13.1649 12.2681 13.4441 13.2812 13.8793L15.6068 14.878C16.2636 15.1601 17 14.6785 17 13.9547V7.00657ZM14.8176 4.24564C16.8002 3.39418 19 4.85274 19 7.00657V13.9547C19 16.1086 16.8002 17.5671 14.8176 16.7157L12.492 15.717C12.0087 15.5094 11.5094 15.3452 11 15.2256V18.9982C11 20.102 10.1065 21.0003 9 21.0003H8.84713C7.86784 21.0003 7.03463 20.2911 6.87428 19.327L6.15036 14.9745C3.82684 14.7957 2 12.8503 2 10.4807C2 7.99333 4.01277 5.97343 6.5 5.97343H8.94742C10.166 5.97343 11.3719 5.72541 12.492 5.24436L14.8176 4.24564ZM8.18006 14.9879L8.84718 18.9989C8.84744 19.0004 8.84746 18.9994 8.84718 18.9989C8.84712 18.9988 8.84737 19 8.84771 19.0003H8.99939C8.99927 19.0005 8.99965 19 8.99939 19.0003C8.99942 19 9 18.9988 9 18.9982V14.988C8.98248 14.9879 8.96495 14.9879 8.94742 14.9879H8.18006ZM21 7.00028C21.5523 7.00028 22 7.448 22 8.00028V13.0003C22 13.5526 21.5523 14.0003 21 14.0003C20.4477 14.0003 20 13.5526 20 13.0003V8.00028C20 7.448 20.4477 7.00028 21 7.00028ZM10 8.50028C10.5523 8.50028 11 8.948 11 9.50028V11.5003C11 12.0526 10.5523 12.5003 10 12.5003C9.44772 12.5003 9 12.0526 9 11.5003V9.50028C9 8.948 9.44772 8.50028 10 8.50028Z" fill="#46B969"/>
</svg>
