<svg width="24" height="24" viewBox="0 0 24 24" fill="none" xmlns="http://www.w3.org/2000/svg">
<path d="M0 8C0 3.58172 3.58172 0 8 0H16C20.4183 0 24 3.58172 24 8V16C24 20.4183 20.4183 24 16 24H8C3.58172 24 0 20.4183 0 16V8Z" fill="white"/>
<path fill-rule="evenodd" clip-rule="evenodd" d="M8.52729 8.52827C8.78764 8.26792 9.20975 8.26792 9.4701 8.52827L11.9987 11.0569L14.5273 8.52827C14.7876 8.26792 15.2098 8.26792 15.4701 8.52827C15.7305 8.78862 15.7305 9.21073 15.4701 9.47108L12.9415 11.9997L15.4701 14.5283C15.7305 14.7886 15.7305 15.2107 15.4701 15.4711C15.2098 15.7314 14.7876 15.7314 14.5273 15.4711L11.9987 12.9425L9.4701 15.4711C9.20975 15.7314 8.78764 15.7314 8.52729 15.4711C8.26694 15.2107 8.26694 14.7886 8.52729 14.5283L11.0559 11.9997L8.52729 9.47108C8.26694 9.21073 8.26694 8.78862 8.52729 8.52827Z" fill="black"/>
</svg>
