<svg width="20" height="20" viewBox="0 0 20 20" fill="none" xmlns="http://www.w3.org/2000/svg">
<g clip-path="url(#clip0_4283_45337)">
<path fill-rule="evenodd" clip-rule="evenodd" d="M10.0007 0.833984C4.93804 0.833984 0.833984 4.93804 0.833984 10.0007C0.833984 15.0633 4.93804 19.1673 10.0007 19.1673C15.0633 19.1673 19.1673 15.0633 19.1673 10.0007C19.1673 4.93804 15.0633 0.833984 10.0007 0.833984ZM2.50065 10.0007C2.50065 5.85852 5.85852 2.50065 10.0007 2.50065C14.1428 2.50065 17.5006 5.85852 17.5006 10.0007C17.5006 14.1428 14.1428 17.5006 10.0007 17.5006C5.85852 17.5006 2.50065 14.1428 2.50065 10.0007ZM8.21857 7.57973C8.72378 6.70871 9.84612 6.40735 10.7252 6.91256C11.6021 7.41649 11.8996 8.52913 11.3957 9.39788C11.1431 9.83336 10.7379 10.1261 10.2825 10.2475C9.83785 10.3662 9.57351 10.8228 9.69211 11.2675C9.81072 11.7122 10.2674 11.9765 10.7121 11.8579C11.5751 11.6277 12.3536 11.0682 12.8374 10.2341C13.8062 8.56371 13.2297 6.42957 11.5557 5.46753C9.88388 4.50677 7.74441 5.07539 6.77686 6.7435C6.54595 7.14162 6.68149 7.65155 7.0796 7.88247C7.47772 8.11338 7.98765 7.97784 8.21857 7.57973ZM10.0007 15.209C10.5759 15.209 11.0423 14.7426 11.0423 14.1673C11.0423 13.592 10.5759 13.1256 10.0007 13.1256C9.42535 13.1256 8.95898 13.592 8.95898 14.1673C8.95898 14.7426 9.42535 15.209 10.0007 15.209Z" fill="#444855"/>
</g>
<defs>
<clipPath id="clip0_4283_45337">
<rect width="20" height="20" fill="white"/>
</clipPath>
</defs>
</svg>
