<svg width="41" height="40" viewBox="0 0 41 40" fill="none" xmlns="http://www.w3.org/2000/svg">
<path d="M10.25 5.00024C7.48858 5.00024 5.25 7.23882 5.25 10.0002V14.0743C5.25 14.9948 5.99619 15.741 6.91667 15.741C7.83714 15.741 8.58333 14.9948 8.58333 14.0743V10.0002C8.58333 9.07977 9.32953 8.33358 10.25 8.33358H14.3241C15.2445 8.33358 15.9907 7.58739 15.9907 6.66691C15.9907 5.74644 15.2445 5.00024 14.3241 5.00024H10.25Z" fill="#1F747A"/>
<path d="M26.1759 5.00024C25.2554 5.00024 24.5093 5.74644 24.5093 6.66691C24.5093 7.58739 25.2554 8.33358 26.1759 8.33358H30.25C31.1705 8.33358 31.9167 9.07977 31.9167 10.0002V14.0743C31.9167 14.9948 32.6629 15.741 33.5833 15.741C34.5038 15.741 35.25 14.9948 35.25 14.0743V10.0002C35.25 7.23882 33.0114 5.00024 30.25 5.00024H26.1759Z" fill="#1F747A"/>
<path d="M8.58333 25.9262C8.58333 25.0057 7.83714 24.2595 6.91667 24.2595C5.99619 24.2595 5.25 25.0057 5.25 25.9262V30.0002C5.25 32.7617 7.48858 35.0002 10.25 35.0002H14.3241C15.2445 35.0002 15.9907 34.2541 15.9907 33.3336C15.9907 32.4131 15.2445 31.6669 14.3241 31.6669H10.25C9.32953 31.6669 8.58333 30.9207 8.58333 30.0002V25.9262Z" fill="#1F747A"/>
<path d="M35.25 25.9262C35.25 25.0057 34.5038 24.2595 33.5833 24.2595C32.6629 24.2595 31.9167 25.0057 31.9167 25.9262V30.0002C31.9167 30.9207 31.1705 31.6669 30.25 31.6669H26.1759C25.2554 31.6669 24.5093 32.4131 24.5093 33.3336C24.5093 34.2541 25.2554 35.0002 26.1759 35.0002H30.25C33.0114 35.0002 35.25 32.7617 35.25 30.0002V25.9262Z" fill="#1F747A"/>
<path d="M13.5833 11.6669H16.9167C17.8371 11.6669 18.5833 12.4131 18.5833 13.3336V16.6669C18.5833 17.5874 17.8371 18.3336 16.9167 18.3336H13.5833C12.6629 18.3336 11.9167 17.5874 11.9167 16.6669V13.3336C11.9167 12.4131 12.6629 11.6669 13.5833 11.6669Z" fill="#1F747A"/>
<path d="M23.5833 11.6669H26.9167C27.8371 11.6669 28.5833 12.4131 28.5833 13.3336V16.6669C28.5833 17.5874 27.8371 18.3336 26.9167 18.3336H23.5833C22.6629 18.3336 21.9167 17.5874 21.9167 16.6669V13.3336C21.9167 12.4131 22.6629 11.6669 23.5833 11.6669Z" fill="#1F747A"/>
<path d="M13.5833 21.6669H16.9167C17.8371 21.6669 18.5833 22.4131 18.5833 23.3336V26.6669C18.5833 27.5874 17.8371 28.3336 16.9167 28.3336H13.5833C12.6629 28.3336 11.9167 27.5874 11.9167 26.6669V23.3336C11.9167 22.4131 12.6629 21.6669 13.5833 21.6669Z" fill="#1F747A"/>
<path d="M22.75 24.1669C22.75 23.2464 23.4962 22.5002 24.4167 22.5002H26.0833C27.0038 22.5002 27.75 23.2464 27.75 24.1669V25.8336C27.75 26.7541 27.0038 27.5002 26.0833 27.5002H24.4167C23.4962 27.5002 22.75 26.7541 22.75 25.8336V24.1669Z" fill="#1F747A"/>
</svg>
