<svg width="24" height="24" viewBox="0 0 24 24" fill="none" xmlns="http://www.w3.org/2000/svg">
<path d="M14 4C14 4.55228 14.4477 5 15 5H17.5858L11.2929 11.2929C10.9024 11.6834 10.9024 12.3166 11.2929 12.7071C11.6834 13.0976 12.3166 13.0976 12.7071 12.7071L19 6.41421V9C19 9.55228 19.4477 10 20 10C20.5523 10 21 9.55228 21 9V4C21 3.44772 20.5523 3 20 3H15C14.4477 3 14 3.44772 14 4Z" fill="#051415"/>
<path d="M11.1237 5.05421C11.6718 4.98587 12.0607 4.48619 11.9923 3.93815C11.924 3.39011 11.4243 3.00124 10.8763 3.06958C6.43564 3.62332 3 7.40968 3 12C3 16.9706 7.02944 21 12 21C16.5903 21 20.3767 17.5644 20.9304 13.1237C20.9988 12.5757 20.6099 12.076 20.0618 12.0077C19.5138 11.9393 19.0141 12.3282 18.9458 12.8763C18.5153 16.3283 15.5689 19 12 19C8.13401 19 5 15.866 5 12C5 8.43109 7.67174 5.48467 11.1237 5.05421Z" fill="#051415"/>
</svg>
