<svg width="20" height="20" viewBox="0 0 20 20" fill="none" xmlns="http://www.w3.org/2000/svg">
<path fill-rule="evenodd" clip-rule="evenodd" d="M4.16536 4.1665H7.11157C7.31375 2.75305 8.52933 1.6665 9.9987 1.6665C11.4681 1.6665 12.6836 2.75305 12.8858 4.1665H15.832C16.2923 4.1665 16.6654 4.5396 16.6654 4.99984C16.6654 5.46007 16.2923 5.83317 15.832 5.83317H4.16536C3.70513 5.83317 3.33203 5.46007 3.33203 4.99984C3.33203 4.5396 3.70513 4.1665 4.16536 4.1665ZM9.9987 3.33317C10.543 3.33317 11.006 3.68101 11.1776 4.1665H8.81983C8.99142 3.68101 9.45444 3.33317 9.9987 3.33317Z" fill="#F43F5D"/>
<path fill-rule="evenodd" clip-rule="evenodd" d="M14.8712 6.6665H5.12621C4.61909 6.6665 4.22954 7.11566 4.30126 7.61769L5.5254 16.1867C5.70135 17.4183 6.75615 18.3332 8.00028 18.3332H11.9971C13.2413 18.3332 14.2961 17.4183 14.472 16.1867L15.6962 7.61769C15.7679 7.11566 15.3783 6.6665 14.8712 6.6665ZM8.33204 9.1665C8.79228 9.1665 9.16537 9.5396 9.16537 9.99984V14.9998C9.16537 15.4601 8.79228 15.8332 8.33204 15.8332C7.8718 15.8332 7.49871 15.4601 7.49871 14.9998V9.99984C7.49871 9.5396 7.8718 9.1665 8.33204 9.1665ZM11.6654 9.1665C12.1256 9.1665 12.4987 9.5396 12.4987 9.99984V14.9998C12.4987 15.4601 12.1256 15.8332 11.6654 15.8332C11.2051 15.8332 10.832 15.4601 10.832 14.9998V9.99984C10.832 9.5396 11.2051 9.1665 11.6654 9.1665Z" fill="#F43F5D"/>
</svg>
