<svg width="43" height="32" viewBox="0 0 43 32" fill="none" xmlns="http://www.w3.org/2000/svg">
<path fill-rule="evenodd" clip-rule="evenodd" d="M7.05784 5.9999C7.57854 5.4792 8.42276 5.4792 8.94346 5.9999L12.4721 9.52849C12.7324 9.78884 12.7324 10.211 12.4721 10.4713C12.2117 10.7317 11.7896 10.7317 11.5292 10.4713L8.00065 6.94271L4.47206 10.4713C4.21171 10.7317 3.7896 10.7317 3.52925 10.4713C3.2689 10.211 3.2689 9.78884 3.52925 9.52849L7.05784 5.9999Z" fill="#2D3039"/>
<path fill-rule="evenodd" clip-rule="evenodd" d="M7.05784 26.0001C7.57854 26.5208 8.42276 26.5208 8.94346 26.0001L12.4721 22.4715C12.7324 22.2112 12.7324 21.789 12.4721 21.5287C12.2117 21.2683 11.7896 21.2683 11.5292 21.5287L8.00065 25.0573L4.47206 21.5287C4.21171 21.2683 3.7896 21.2683 3.52925 21.5287C3.2689 21.789 3.2689 22.2112 3.52925 22.4715L7.05784 26.0001Z" fill="#2D3039"/>
<path fill-rule="evenodd" clip-rule="evenodd" d="M22.5 28C22.2239 28 22 27.7761 22 27.5L22 4.5C22 4.22386 22.2239 4 22.5 4C22.7761 4 23 4.22386 23 4.5L23 27.5C23 27.7761 22.7761 28 22.5 28Z" fill="#E3E4E8"/>
<path d="M32.696 10.128L34.04 10.478C33.284 12.55 32.038 14.538 30.764 15.784C30.512 15.56 29.952 15.126 29.616 14.93C30.918 13.81 32.052 12.004 32.696 10.128ZM32.71 11.808H41.684V13.096H32.066L32.71 11.808ZM31.884 15.042H41.362V16.288H33.214V19.438H31.884V15.042ZM29.616 18.78H42.384V20.054H29.616V18.78ZM36.056 12.48H37.414V23.19H36.056V12.48Z" fill="#2D3039"/>
</svg>
